<svg width="256" height="256" viewBox="0 0 256 256" fill="none" xmlns="http://www.w3.org/2000/svg">
<path d="M112.496 100H111.263C111.191 99.6454 111.063 99.3338 110.881 99.0653C110.702 98.7969 110.483 98.5715 110.224 98.3892C109.969 98.2036 109.686 98.0644 109.374 97.9716C109.063 97.8788 108.738 97.8324 108.4 97.8324C107.783 97.8324 107.225 97.9882 106.724 98.2997C106.227 98.6113 105.831 99.0703 105.536 99.6768C105.245 100.283 105.099 101.027 105.099 101.909C105.099 102.791 105.245 103.535 105.536 104.141C105.831 104.748 106.227 105.207 106.724 105.518C107.225 105.83 107.783 105.986 108.4 105.986C108.738 105.986 109.063 105.939 109.374 105.847C109.686 105.754 109.969 105.616 110.224 105.434C110.483 105.248 110.702 105.021 110.881 104.753C111.063 104.481 111.191 104.17 111.263 103.818H112.496C112.404 104.339 112.235 104.804 111.989 105.215C111.744 105.626 111.439 105.976 111.075 106.264C110.71 106.549 110.301 106.766 109.847 106.915C109.396 107.065 108.914 107.139 108.4 107.139C107.531 107.139 106.759 106.927 106.083 106.503C105.407 106.079 104.875 105.475 104.487 104.693C104.099 103.911 103.906 102.983 103.906 101.909C103.906 100.835 104.099 99.9072 104.487 99.125C104.875 98.3428 105.407 97.7396 106.083 97.3153C106.759 96.8911 107.531 96.679 108.4 96.679C108.914 96.679 109.396 96.7536 109.847 96.9027C110.301 97.0518 110.71 97.2706 111.075 97.5589C111.439 97.844 111.744 98.192 111.989 98.603C112.235 99.0107 112.404 99.4763 112.496 100ZM114.33 107V99.3636H115.503V107H114.33ZM114.926 98.0909C114.698 98.0909 114.5 98.013 114.335 97.8572C114.172 97.7015 114.091 97.5142 114.091 97.2955C114.091 97.0767 114.172 96.8894 114.335 96.7337C114.5 96.5779 114.698 96.5 114.926 96.5C115.155 96.5 115.351 96.5779 115.513 96.7337C115.679 96.8894 115.762 97.0767 115.762 97.2955C115.762 97.5142 115.679 97.7015 115.513 97.8572C115.351 98.013 115.155 98.0909 114.926 98.0909ZM117.652 107V99.3636H118.786V100.517H118.865C119.004 100.139 119.256 99.8326 119.621 99.5973C119.985 99.362 120.396 99.2443 120.854 99.2443C120.94 99.2443 121.048 99.246 121.177 99.2493C121.306 99.2526 121.404 99.2576 121.47 99.2642V100.457C121.43 100.447 121.339 100.433 121.197 100.413C121.058 100.389 120.91 100.378 120.754 100.378C120.383 100.378 120.052 100.456 119.76 100.612C119.472 100.764 119.243 100.976 119.074 101.248C118.908 101.516 118.825 101.823 118.825 102.168V107H117.652ZM125.731 107.159C125.015 107.159 124.398 106.99 123.881 106.652C123.364 106.314 122.967 105.848 122.688 105.255C122.41 104.662 122.271 103.984 122.271 103.222C122.271 102.446 122.413 101.762 122.698 101.168C122.987 100.572 123.388 100.106 123.901 99.7713C124.418 99.4332 125.022 99.2642 125.711 99.2642C126.248 99.2642 126.732 99.3636 127.163 99.5625C127.594 99.7614 127.946 100.04 128.222 100.398C128.497 100.756 128.667 101.173 128.734 101.651H127.56C127.471 101.303 127.272 100.994 126.964 100.726C126.659 100.454 126.248 100.318 125.731 100.318C125.273 100.318 124.872 100.437 124.528 100.676C124.186 100.911 123.92 101.245 123.727 101.675C123.538 102.103 123.444 102.605 123.444 103.182C123.444 103.772 123.537 104.286 123.722 104.723C123.911 105.161 124.176 105.5 124.518 105.742C124.862 105.984 125.267 106.105 125.731 106.105C126.036 106.105 126.312 106.052 126.561 105.946C126.81 105.84 127.02 105.688 127.192 105.489C127.365 105.29 127.487 105.051 127.56 104.773H128.734C128.667 105.223 128.503 105.629 128.241 105.991C127.983 106.349 127.64 106.634 127.212 106.846C126.788 107.055 126.294 107.159 125.731 107.159ZM135.261 103.878V99.3636H136.435V107H135.261V105.707H135.182C135.003 106.095 134.724 106.425 134.347 106.697C133.969 106.965 133.491 107.099 132.915 107.099C132.438 107.099 132.013 106.995 131.642 106.786C131.271 106.574 130.979 106.256 130.767 105.832C130.555 105.404 130.449 104.866 130.449 104.216V99.3636H131.622V104.136C131.622 104.693 131.778 105.137 132.089 105.469C132.404 105.8 132.805 105.966 133.293 105.966C133.584 105.966 133.881 105.891 134.183 105.742C134.487 105.593 134.743 105.364 134.948 105.056C135.157 104.748 135.261 104.355 135.261 103.878ZM139.757 96.8182V107H138.584V96.8182H139.757ZM144.153 107.179C143.669 107.179 143.23 107.088 142.836 106.906C142.441 106.72 142.128 106.453 141.896 106.105C141.664 105.754 141.548 105.33 141.548 104.832C141.548 104.395 141.634 104.04 141.806 103.768C141.979 103.493 142.209 103.278 142.498 103.122C142.786 102.966 143.104 102.85 143.452 102.774C143.803 102.695 144.156 102.632 144.511 102.585C144.975 102.526 145.351 102.481 145.64 102.451C145.931 102.418 146.143 102.363 146.276 102.287C146.412 102.211 146.48 102.078 146.48 101.889V101.849C146.48 101.359 146.346 100.978 146.077 100.706C145.812 100.434 145.409 100.298 144.869 100.298C144.309 100.298 143.87 100.421 143.551 100.666C143.233 100.911 143.01 101.173 142.88 101.452L141.767 101.054C141.966 100.59 142.231 100.229 142.562 99.9702C142.897 99.7083 143.261 99.526 143.656 99.4233C144.054 99.3172 144.445 99.2642 144.829 99.2642C145.074 99.2642 145.356 99.294 145.674 99.3537C145.996 99.41 146.306 99.5277 146.604 99.7067C146.906 99.8857 147.156 100.156 147.355 100.517C147.554 100.878 147.653 101.362 147.653 101.969V107H146.48V105.966H146.42C146.341 106.132 146.208 106.309 146.022 106.498C145.837 106.687 145.59 106.848 145.282 106.98C144.973 107.113 144.597 107.179 144.153 107.179ZM144.332 106.125C144.796 106.125 145.187 106.034 145.505 105.852C145.827 105.669 146.069 105.434 146.231 105.146C146.397 104.857 146.48 104.554 146.48 104.236V103.162C146.43 103.222 146.321 103.276 146.152 103.326C145.986 103.372 145.794 103.414 145.575 103.45C145.359 103.483 145.149 103.513 144.944 103.54C144.741 103.563 144.577 103.583 144.451 103.599C144.146 103.639 143.861 103.704 143.596 103.793C143.334 103.879 143.122 104.01 142.96 104.186C142.801 104.358 142.721 104.594 142.721 104.892C142.721 105.3 142.872 105.608 143.174 105.817C143.479 106.022 143.865 106.125 144.332 106.125ZM149.795 107V99.3636H150.928V100.517H151.008C151.147 100.139 151.399 99.8326 151.763 99.5973C152.128 99.362 152.539 99.2443 152.996 99.2443C153.082 99.2443 153.19 99.246 153.319 99.2493C153.449 99.2526 153.546 99.2576 153.613 99.2642V100.457C153.573 100.447 153.482 100.433 153.339 100.413C153.2 100.389 153.053 100.378 152.897 100.378C152.526 100.378 152.194 100.456 151.903 100.612C151.614 100.764 151.385 100.976 151.216 101.248C151.051 101.516 150.968 101.823 150.968 102.168V107H149.795ZM100.482 124V113.818H103.922C104.721 113.818 105.374 113.962 105.881 114.251C106.392 114.536 106.769 114.922 107.015 115.409C107.26 115.896 107.383 116.44 107.383 117.04C107.383 117.64 107.26 118.185 107.015 118.675C106.773 119.166 106.398 119.557 105.891 119.849C105.384 120.137 104.734 120.281 103.942 120.281H101.476V119.188H103.902C104.449 119.188 104.888 119.093 105.22 118.904C105.551 118.715 105.792 118.46 105.941 118.138C106.093 117.814 106.169 117.447 106.169 117.04C106.169 116.632 106.093 116.268 105.941 115.946C105.792 115.625 105.55 115.373 105.215 115.19C104.88 115.005 104.436 114.912 103.883 114.912H101.715V124H100.482ZM109.21 124V116.364H110.343V117.517H110.423C110.562 117.139 110.814 116.833 111.178 116.597C111.543 116.362 111.954 116.244 112.411 116.244C112.497 116.244 112.605 116.246 112.734 116.249C112.864 116.253 112.962 116.258 113.028 116.264V117.457C112.988 117.447 112.897 117.433 112.754 117.413C112.615 117.389 112.468 117.378 112.312 117.378C111.941 117.378 111.609 117.456 111.318 117.612C111.029 117.764 110.801 117.976 110.631 118.248C110.466 118.516 110.383 118.823 110.383 119.168V124H109.21ZM117.288 124.159C116.599 124.159 115.994 123.995 115.474 123.667C114.957 123.339 114.552 122.88 114.261 122.29C113.972 121.7 113.828 121.01 113.828 120.222C113.828 119.426 113.972 118.732 114.261 118.138C114.552 117.545 114.957 117.085 115.474 116.756C115.994 116.428 116.599 116.264 117.288 116.264C117.978 116.264 118.581 116.428 119.098 116.756C119.618 117.085 120.023 117.545 120.311 118.138C120.603 118.732 120.749 119.426 120.749 120.222C120.749 121.01 120.603 121.7 120.311 122.29C120.023 122.88 119.618 123.339 119.098 123.667C118.581 123.995 117.978 124.159 117.288 124.159ZM117.288 123.105C117.812 123.105 118.243 122.971 118.581 122.702C118.919 122.434 119.169 122.081 119.332 121.643C119.494 121.206 119.575 120.732 119.575 120.222C119.575 119.711 119.494 119.236 119.332 118.795C119.169 118.354 118.919 117.998 118.581 117.726C118.243 117.454 117.812 117.318 117.288 117.318C116.765 117.318 116.334 117.454 115.996 117.726C115.658 117.998 115.408 118.354 115.245 118.795C115.083 119.236 115.002 119.711 115.002 120.222C115.002 120.732 115.083 121.206 115.245 121.643C115.408 122.081 115.658 122.434 115.996 122.702C116.334 122.971 116.765 123.105 117.288 123.105ZM125.622 127.023C125.055 127.023 124.568 126.95 124.16 126.804C123.753 126.661 123.413 126.473 123.141 126.237C122.873 126.005 122.659 125.757 122.5 125.491L123.435 124.835C123.541 124.974 123.675 125.134 123.837 125.312C124 125.495 124.222 125.652 124.503 125.785C124.789 125.921 125.161 125.989 125.622 125.989C126.239 125.989 126.747 125.839 127.148 125.541C127.549 125.243 127.75 124.776 127.75 124.139V122.588H127.65C127.564 122.727 127.442 122.9 127.283 123.105C127.127 123.307 126.901 123.488 126.606 123.647C126.315 123.803 125.92 123.881 125.423 123.881C124.807 123.881 124.253 123.735 123.763 123.443C123.275 123.152 122.889 122.727 122.604 122.17C122.323 121.614 122.182 120.937 122.182 120.142C122.182 119.36 122.319 118.679 122.594 118.099C122.869 117.515 123.252 117.065 123.743 116.746C124.233 116.425 124.8 116.264 125.443 116.264C125.94 116.264 126.335 116.347 126.626 116.513C126.921 116.675 127.147 116.861 127.302 117.07C127.462 117.275 127.584 117.444 127.67 117.577H127.79V116.364H128.923V124.219C128.923 124.875 128.774 125.409 128.476 125.82C128.181 126.234 127.783 126.537 127.283 126.729C126.785 126.925 126.232 127.023 125.622 127.023ZM125.582 122.827C126.053 122.827 126.451 122.719 126.775 122.504C127.1 122.288 127.347 121.978 127.516 121.574C127.685 121.17 127.77 120.686 127.77 120.122C127.77 119.572 127.687 119.086 127.521 118.665C127.355 118.245 127.11 117.915 126.785 117.676C126.461 117.437 126.06 117.318 125.582 117.318C125.085 117.318 124.671 117.444 124.339 117.696C124.011 117.948 123.764 118.286 123.599 118.71C123.436 119.134 123.355 119.605 123.355 120.122C123.355 120.652 123.438 121.121 123.604 121.529C123.773 121.933 124.021 122.252 124.349 122.484C124.681 122.712 125.092 122.827 125.582 122.827ZM131.071 124V116.364H132.204V117.517H132.284C132.423 117.139 132.675 116.833 133.04 116.597C133.404 116.362 133.815 116.244 134.273 116.244C134.359 116.244 134.467 116.246 134.596 116.249C134.725 116.253 134.823 116.258 134.889 116.264V117.457C134.849 117.447 134.758 117.433 134.616 117.413C134.476 117.389 134.329 117.378 134.173 117.378C133.802 117.378 133.471 117.456 133.179 117.612C132.891 117.764 132.662 117.976 132.493 118.248C132.327 118.516 132.244 118.823 132.244 119.168V124H131.071ZM139.249 124.159C138.513 124.159 137.879 123.997 137.345 123.672C136.815 123.344 136.405 122.886 136.117 122.3C135.832 121.71 135.69 121.024 135.69 120.241C135.69 119.459 135.832 118.77 136.117 118.173C136.405 117.573 136.806 117.106 137.32 116.771C137.837 116.433 138.44 116.264 139.13 116.264C139.528 116.264 139.92 116.33 140.308 116.463C140.696 116.596 141.049 116.811 141.367 117.109C141.685 117.404 141.939 117.795 142.128 118.283C142.317 118.77 142.411 119.37 142.411 120.082V120.58H136.525V119.565H141.218C141.218 119.134 141.132 118.75 140.959 118.412C140.79 118.074 140.548 117.807 140.234 117.612C139.922 117.416 139.554 117.318 139.13 117.318C138.663 117.318 138.258 117.434 137.917 117.666C137.579 117.895 137.319 118.193 137.136 118.561C136.954 118.929 136.863 119.323 136.863 119.744V120.42C136.863 120.997 136.962 121.486 137.161 121.887C137.363 122.285 137.643 122.588 138.001 122.797C138.359 123.002 138.775 123.105 139.249 123.105C139.557 123.105 139.836 123.062 140.084 122.976C140.336 122.886 140.553 122.754 140.736 122.578C140.918 122.399 141.059 122.177 141.158 121.912L142.292 122.23C142.172 122.615 141.972 122.953 141.69 123.244C141.409 123.533 141.061 123.758 140.646 123.92C140.232 124.08 139.766 124.159 139.249 124.159ZM149.605 118.074L148.551 118.372C148.485 118.196 148.387 118.026 148.258 117.86C148.132 117.691 147.959 117.552 147.741 117.442C147.522 117.333 147.242 117.278 146.9 117.278C146.433 117.278 146.044 117.386 145.732 117.602C145.424 117.814 145.27 118.084 145.27 118.412C145.27 118.704 145.376 118.934 145.588 119.103C145.8 119.272 146.132 119.413 146.582 119.526L147.716 119.804C148.399 119.97 148.907 120.223 149.242 120.565C149.577 120.903 149.744 121.339 149.744 121.872C149.744 122.31 149.618 122.701 149.366 123.045C149.118 123.39 148.77 123.662 148.322 123.861C147.875 124.06 147.355 124.159 146.761 124.159C145.982 124.159 145.338 123.99 144.827 123.652C144.317 123.314 143.994 122.82 143.858 122.17L144.972 121.892C145.078 122.303 145.278 122.611 145.573 122.817C145.871 123.022 146.261 123.125 146.741 123.125C147.288 123.125 147.722 123.009 148.044 122.777C148.369 122.542 148.531 122.26 148.531 121.932C148.531 121.667 148.438 121.445 148.253 121.266C148.067 121.083 147.782 120.947 147.398 120.858L146.125 120.56C145.426 120.394 144.912 120.137 144.584 119.789C144.259 119.438 144.097 118.999 144.097 118.472C144.097 118.041 144.217 117.66 144.459 117.328C144.705 116.997 145.038 116.737 145.459 116.548C145.883 116.359 146.364 116.264 146.9 116.264C147.656 116.264 148.249 116.43 148.68 116.761C149.114 117.093 149.423 117.53 149.605 118.074ZM156.919 118.074L155.866 118.372C155.799 118.196 155.701 118.026 155.572 117.86C155.446 117.691 155.274 117.552 155.055 117.442C154.836 117.333 154.556 117.278 154.215 117.278C153.748 117.278 153.358 117.386 153.047 117.602C152.738 117.814 152.584 118.084 152.584 118.412C152.584 118.704 152.69 118.934 152.902 119.103C153.115 119.272 153.446 119.413 153.897 119.526L155.03 119.804C155.713 119.97 156.222 120.223 156.557 120.565C156.891 120.903 157.059 121.339 157.059 121.872C157.059 122.31 156.933 122.701 156.681 123.045C156.432 123.39 156.084 123.662 155.637 123.861C155.189 124.06 154.669 124.159 154.076 124.159C153.297 124.159 152.652 123.99 152.142 123.652C151.631 123.314 151.308 122.82 151.172 122.17L152.286 121.892C152.392 122.303 152.593 122.611 152.888 122.817C153.186 123.022 153.575 123.125 154.056 123.125C154.603 123.125 155.037 123.009 155.358 122.777C155.683 122.542 155.846 122.26 155.846 121.932C155.846 121.667 155.753 121.445 155.567 121.266C155.382 121.083 155.097 120.947 154.712 120.858L153.439 120.56C152.74 120.394 152.226 120.137 151.898 119.789C151.573 119.438 151.411 118.999 151.411 118.472C151.411 118.041 151.532 117.66 151.774 117.328C152.019 116.997 152.352 116.737 152.773 116.548C153.197 116.359 153.678 116.264 154.215 116.264C154.971 116.264 155.564 116.43 155.995 116.761C156.429 117.093 156.737 117.53 156.919 118.074Z" fill="white"/>
<path d="M101.503 158.199C100.499 158.199 99.6045 158.014 98.8185 157.645C98.0373 157.276 97.417 156.767 96.9577 156.118C96.4985 155.469 96.2594 154.726 96.2404 153.888H99.2234C99.2565 154.451 99.4933 154.908 99.9336 155.259C100.374 155.609 100.897 155.784 101.503 155.784C101.986 155.784 102.412 155.678 102.782 155.464C103.156 155.247 103.447 154.946 103.655 154.562C103.868 154.174 103.975 153.729 103.975 153.227C103.975 152.716 103.866 152.266 103.648 151.878C103.435 151.49 103.139 151.187 102.76 150.969C102.382 150.751 101.948 150.64 101.461 150.635C101.034 150.635 100.62 150.723 100.218 150.898C99.82 151.073 99.5098 151.312 99.2873 151.615L96.5529 151.125L97.2418 143.455H106.134V145.969H99.7773L99.4009 149.612H99.4862C99.7418 149.252 100.128 148.954 100.644 148.717C101.16 148.481 101.738 148.362 102.377 148.362C103.253 148.362 104.034 148.568 104.721 148.98C105.407 149.392 105.949 149.958 106.347 150.678C106.745 151.393 106.941 152.216 106.936 153.149C106.941 154.129 106.714 155 106.255 155.763C105.8 156.52 105.163 157.117 104.344 157.553C103.53 157.983 102.583 158.199 101.503 158.199ZM114.344 143.256C115.092 143.256 115.812 143.381 116.503 143.632C117.199 143.883 117.819 144.283 118.364 144.832C118.913 145.382 119.346 146.111 119.664 147.02C119.986 147.924 120.149 149.035 120.154 150.351C120.154 151.587 120.014 152.69 119.735 153.661C119.46 154.626 119.065 155.448 118.549 156.125C118.033 156.802 117.41 157.318 116.681 157.673C115.952 158.024 115.137 158.199 114.238 158.199C113.267 158.199 112.41 158.012 111.667 157.638C110.923 157.259 110.324 156.745 109.87 156.097C109.42 155.443 109.148 154.709 109.053 153.895H112.086C112.204 154.425 112.453 154.837 112.831 155.131C113.21 155.42 113.679 155.564 114.238 155.564C115.185 155.564 115.904 155.152 116.397 154.328C116.889 153.5 117.138 152.366 117.142 150.926H117.043C116.825 151.352 116.532 151.719 116.162 152.027C115.793 152.33 115.369 152.564 114.891 152.73C114.417 152.896 113.913 152.979 113.378 152.979C112.521 152.979 111.757 152.777 111.084 152.375C110.412 151.973 109.882 151.419 109.493 150.713C109.105 150.008 108.911 149.203 108.911 148.298C108.906 147.323 109.131 146.454 109.586 145.692C110.04 144.929 110.675 144.333 111.489 143.902C112.308 143.466 113.26 143.251 114.344 143.256ZM114.365 145.67C113.887 145.67 113.461 145.784 113.087 146.011C112.718 146.239 112.424 146.544 112.206 146.928C111.993 147.311 111.889 147.74 111.894 148.213C111.894 148.691 111.998 149.122 112.206 149.506C112.419 149.884 112.708 150.187 113.073 150.415C113.442 150.637 113.864 150.749 114.337 150.749C114.692 150.749 115.021 150.682 115.324 150.55C115.627 150.417 115.89 150.235 116.113 150.003C116.34 149.766 116.517 149.494 116.645 149.186C116.773 148.878 116.837 148.552 116.837 148.206C116.832 147.747 116.723 147.325 116.51 146.942C116.297 146.558 116.004 146.25 115.63 146.018C115.256 145.786 114.834 145.67 114.365 145.67ZM125.015 156.011L124.937 156.793C124.876 157.418 124.757 158.04 124.582 158.661C124.412 159.286 124.232 159.851 124.042 160.358C123.858 160.865 123.708 161.262 123.595 161.551H121.635C121.706 161.272 121.803 160.881 121.926 160.379C122.049 159.882 122.165 159.323 122.274 158.703C122.383 158.083 122.451 157.451 122.48 156.807L122.515 156.011H125.015ZM127.753 158V155.784L132.931 150.99C133.371 150.564 133.74 150.18 134.039 149.839C134.342 149.499 134.571 149.165 134.728 148.838C134.884 148.507 134.962 148.149 134.962 147.766C134.962 147.339 134.865 146.973 134.671 146.665C134.477 146.352 134.212 146.113 133.875 145.947C133.539 145.777 133.158 145.692 132.732 145.692C132.287 145.692 131.899 145.782 131.567 145.962C131.236 146.142 130.98 146.4 130.8 146.736C130.62 147.072 130.53 147.472 130.53 147.936H127.611C127.611 146.984 127.827 146.158 128.257 145.457C128.688 144.757 129.292 144.214 130.069 143.831C130.845 143.447 131.74 143.256 132.753 143.256C133.795 143.256 134.702 143.44 135.473 143.81C136.25 144.174 136.854 144.681 137.284 145.33C137.715 145.978 137.931 146.722 137.931 147.56C137.931 148.109 137.822 148.651 137.604 149.186C137.391 149.721 137.01 150.315 136.461 150.969C135.911 151.617 135.137 152.396 134.138 153.305L132.015 155.386V155.486H138.123V158H127.753ZM152.941 155.273V154.506C152.941 153.923 153.065 153.388 153.311 152.901C153.562 152.408 153.924 152.015 154.397 151.722C154.876 151.423 155.458 151.274 156.145 151.274C156.841 151.274 157.425 151.421 157.899 151.714C158.377 152.008 158.737 152.401 158.978 152.893C159.225 153.381 159.348 153.919 159.348 154.506V155.273C159.348 155.855 159.225 156.393 158.978 156.885C158.732 157.373 158.37 157.763 157.892 158.057C157.413 158.355 156.831 158.504 156.145 158.504C155.449 158.504 154.864 158.355 154.39 158.057C153.917 157.763 153.557 157.373 153.311 156.885C153.065 156.393 152.941 155.855 152.941 155.273ZM155.008 154.506V155.273C155.008 155.609 155.089 155.926 155.25 156.224C155.415 156.523 155.714 156.672 156.145 156.672C156.575 156.672 156.869 156.525 157.025 156.232C157.186 155.938 157.267 155.618 157.267 155.273V154.506C157.267 154.16 157.191 153.838 157.039 153.54C156.888 153.241 156.59 153.092 156.145 153.092C155.718 153.092 155.422 153.241 155.257 153.54C155.091 153.838 155.008 154.16 155.008 154.506ZM145.477 146.949V146.182C145.477 145.595 145.602 145.057 145.853 144.57C146.104 144.077 146.467 143.684 146.94 143.391C147.418 143.097 147.996 142.95 148.673 142.95C149.374 142.95 149.961 143.097 150.434 143.391C150.908 143.684 151.268 144.077 151.514 144.57C151.76 145.057 151.883 145.595 151.883 146.182V146.949C151.883 147.536 151.758 148.073 151.507 148.561C151.261 149.049 150.898 149.439 150.42 149.733C149.947 150.022 149.364 150.166 148.673 150.166C147.982 150.166 147.397 150.019 146.919 149.726C146.445 149.428 146.085 149.037 145.839 148.554C145.598 148.066 145.477 147.531 145.477 146.949ZM147.558 146.182V146.949C147.558 147.295 147.638 147.614 147.799 147.908C147.965 148.201 148.256 148.348 148.673 148.348C149.109 148.348 149.404 148.201 149.561 147.908C149.722 147.614 149.802 147.295 149.802 146.949V146.182C149.802 145.836 149.726 145.514 149.575 145.216C149.423 144.918 149.123 144.768 148.673 144.768C148.252 144.768 147.96 144.92 147.799 145.223C147.638 145.526 147.558 145.846 147.558 146.182ZM146.414 158L156.414 143.455H158.275L148.275 158H146.414Z" fill="white"/>
<path d="M231 128C231 184.885 184.885 231 128 231C71.1147 231 25 184.885 25 128C25 71.1147 71.1147 25 128 25C184.885 25 231 71.1147 231 128ZM57.0642 128C57.0642 167.177 88.8232 198.936 128 198.936C167.177 198.936 198.936 167.177 198.936 128C198.936 88.8232 167.177 57.0642 128 57.0642C88.8232 57.0642 57.0642 88.8232 57.0642 128Z" fill="#1D93ED" fill-opacity="0.1"/>
<path d="M10.6056 177.747C0.804721 154.619 -1.9461 129.111 2.69845 104.425C7.34299 79.7391 19.1759 56.975 36.7121 38.9901" stroke="white"/>
<path d="M173.545 8.91224C197.007 17.8852 217.296 33.5886 231.864 54.0512C246.433 74.5139 254.633 98.8241 255.435 123.93" stroke="white"/>
<path d="M44.6325 224.468C38.5166 219.183 32.9172 213.328 27.9099 206.982" stroke="white"/>
<path d="M65.4195 239.085C60.6887 236.42 56.1329 233.455 51.7801 230.209" stroke="white"/>
<path d="M80.611 246.366C77.2604 245.025 73.9682 243.542 70.7434 241.921" stroke="white"/>
<path d="M97.2561 240.37C71.9024 233.434 49.6395 218.127 34.0855 196.937C18.5314 175.747 10.6004 149.92 11.5811 123.653C12.5619 97.386 22.3968 72.2224 39.4877 52.2516C56.5786 32.2808 79.9208 18.6767 105.721 13.6501" stroke="#1D93ED" stroke-linecap="round" stroke-dasharray="2 121"/>
<path d="M97.2561 240.37C71.9024 233.434 49.6395 218.127 34.0855 196.937C18.5314 175.747 10.6004 149.92 11.5811 123.653C12.5619 97.386 22.3968 72.2224 39.4877 52.2516C56.5786 32.2808 79.9208 18.6767 105.721 13.6501" stroke="#1D93ED" stroke-opacity="0.5" stroke-linecap="round"/>
<path d="M158.744 240.37C184.098 233.434 206.36 218.127 221.915 196.937C237.469 175.747 245.4 149.92 244.419 123.653C243.438 97.386 233.603 72.2224 216.512 52.2516C199.421 32.2808 176.079 18.6767 150.279 13.6501" stroke="#1D93ED" stroke-linecap="round" stroke-dasharray="2 121"/>
<path d="M158.744 240.37C184.098 233.434 206.36 218.127 221.915 196.937C237.469 175.747 245.4 149.92 244.419 123.653C243.438 97.386 233.603 72.2224 216.512 52.2516C199.421 32.2808 176.079 18.6767 150.279 13.6501" stroke="#1D93ED" stroke-opacity="0.5" stroke-linecap="round"/>
<path d="M192.5 128C192.5 136.47 190.832 144.858 187.59 152.683C184.349 160.509 179.598 167.619 173.608 173.608C167.619 179.598 160.509 184.349 152.683 187.59C144.858 190.832 136.47 192.5 128 192.5C119.53 192.5 111.142 190.832 103.317 187.59C95.4914 184.349 88.381 179.598 82.3916 173.608C76.4022 167.619 71.6512 160.509 68.4098 152.683C65.1683 144.858 63.5 136.47 63.5 128C63.5 119.53 65.1683 111.142 68.4098 103.317C71.6512 95.4914 76.4022 88.381 82.3916 82.3916C88.381 76.4022 95.4914 71.6512 103.317 68.4098C111.142 65.1683 119.53 63.5 128 63.5C136.47 63.5 144.858 65.1683 152.683 68.4098C160.509 71.6512 167.619 76.4022 173.608 82.3916C179.598 88.381 184.349 95.4914 187.59 103.317C190.832 111.142 192.5 119.53 192.5 128L192.5 128Z" stroke="white" stroke-opacity="0.2" stroke-linecap="round"/>
<mask id="mask0_431_1586" style="mask-type:alpha" maskUnits="userSpaceOnUse" x="69" y="19" width="168" height="218">
<path d="M128 21C128 19.8954 128.896 18.9981 130 19.0183C146.275 19.317 162.286 23.2574 176.852 30.5603C192.015 38.1623 205.194 49.1979 215.342 62.7892C225.489 76.3806 232.325 92.1525 235.305 108.85C238.285 125.548 237.326 142.711 232.507 158.973C227.687 175.236 219.138 190.149 207.541 202.527C195.944 214.904 181.618 224.404 165.704 230.271C149.789 236.139 132.725 238.211 115.868 236.323C99.6752 234.509 84.1031 229.089 70.2937 220.472C69.3567 219.887 69.0946 218.646 69.6965 217.72L85.1486 193.942C85.7505 193.016 86.9879 192.755 87.9295 193.333C97.5133 199.211 108.281 202.913 119.47 204.166C131.322 205.493 143.321 204.036 154.511 199.911C165.701 195.785 175.774 189.105 183.928 180.402C192.083 171.699 198.093 161.213 201.482 149.779C204.871 138.344 205.545 126.276 203.45 114.535C201.355 102.794 196.548 91.7045 189.413 82.1479C182.278 72.5913 173.011 64.8318 162.35 59.4866C152.285 54.4404 141.239 51.6775 130 51.3842C128.896 51.3554 128 50.4627 128 49.3581V21Z" fill="#1D93ED"/>
</mask>
<g mask="url(#mask0_431_1586)">
<g filter="url(#filter0_f_431_1586)">
<mask id="path-15-inside-1_431_1586" fill="white">
<path d="M128 17C128 15.8954 128.896 14.9982 130 15.0177C146.897 15.3168 163.522 19.4026 178.645 26.9846C194.364 34.8655 208.027 46.3061 218.547 60.3962C229.067 74.4863 236.153 90.837 239.242 108.148C242.332 125.458 241.338 143.251 236.342 160.11C231.345 176.969 222.483 192.43 210.46 205.262C198.437 218.093 183.586 227.942 167.087 234.024C150.589 240.107 132.898 242.255 115.423 240.298C98.6114 238.415 82.4454 232.783 68.1138 223.826C67.1771 223.241 66.9151 222 67.5169 221.074L88.4023 188.935C89.0042 188.009 90.2415 187.748 91.1843 188.324C99.9881 193.697 109.869 197.082 120.134 198.232C131.063 199.456 142.127 198.112 152.445 194.308C162.764 190.504 172.052 184.345 179.571 176.32C187.09 168.295 192.632 158.626 195.757 148.082C198.882 137.538 199.503 126.41 197.571 115.584C195.639 104.758 191.208 94.5323 184.628 85.7203C178.049 76.9083 169.504 69.7533 159.673 64.8246C150.439 60.1949 140.309 57.6495 130 57.3577C128.896 57.3264 128 56.4339 128 55.3294V17Z"/>
</mask>
<path d="M128 17C128 15.8954 128.896 14.9982 130 15.0177C146.897 15.3168 163.522 19.4026 178.645 26.9846C194.364 34.8655 208.027 46.3061 218.547 60.3962C229.067 74.4863 236.153 90.837 239.242 108.148C242.332 125.458 241.338 143.251 236.342 160.11C231.345 176.969 222.483 192.43 210.46 205.262C198.437 218.093 183.586 227.942 167.087 234.024C150.589 240.107 132.898 242.255 115.423 240.298C98.6114 238.415 82.4454 232.783 68.1138 223.826C67.1771 223.241 66.9151 222 67.5169 221.074L88.4023 188.935C89.0042 188.009 90.2415 187.748 91.1843 188.324C99.9881 193.697 109.869 197.082 120.134 198.232C131.063 199.456 142.127 198.112 152.445 194.308C162.764 190.504 172.052 184.345 179.571 176.32C187.09 168.295 192.632 158.626 195.757 148.082C198.882 137.538 199.503 126.41 197.571 115.584C195.639 104.758 191.208 94.5323 184.628 85.7203C178.049 76.9083 169.504 69.7533 159.673 64.8246C150.439 60.1949 140.309 57.6495 130 57.3577C128.896 57.3264 128 56.4339 128 55.3294V17Z" stroke="#1D93ED" stroke-width="16" mask="url(#path-15-inside-1_431_1586)"/>
</g>
<path d="M145.441 -205.383L148.141 -200.706L-130.917 -39.5917L-133.617 -44.2687L145.441 -205.383Z" fill="#1D93ED"/>
<path d="M149.941 -197.588L152.641 -192.911L-126.416 -31.7968L-129.117 -36.4738L149.941 -197.588Z" fill="#1D93ED"/>
<path d="M154.442 -189.793L157.142 -185.116L-121.916 -24.0019L-124.616 -28.6789L154.442 -189.793Z" fill="#1D93ED"/>
<path d="M158.942 -181.998L161.642 -177.321L-117.416 -16.207L-120.116 -20.8839L158.942 -181.998Z" fill="#1D93ED"/>
<path d="M163.442 -174.203L166.143 -169.526L-112.915 -8.41209L-115.615 -13.089L163.442 -174.203Z" fill="#1D93ED"/>
<path d="M167.943 -166.408L170.643 -161.731L-108.415 -0.617173L-111.115 -5.29412L167.943 -166.408Z" fill="#1D93ED"/>
<path d="M172.443 -158.613L175.143 -153.936L-103.914 7.17774L-106.615 2.50079L172.443 -158.613Z" fill="#1D93ED"/>
<path d="M176.944 -150.818L179.644 -146.141L-99.414 14.9727L-102.114 10.2957L176.944 -150.818Z" fill="#1D93ED"/>
<path d="M181.444 -143.024L184.144 -138.347L-94.9136 22.7676L-97.6139 18.0906L181.444 -143.024Z" fill="#1D93ED"/>
<path d="M185.944 -135.229L188.645 -130.552L-90.4132 30.5625L-93.1135 25.8855L185.944 -135.229Z" fill="#1D93ED"/>
<path d="M190.445 -127.434L193.145 -122.757L-85.9129 38.3574L-88.6131 33.6804L190.445 -127.434Z" fill="#1D93ED"/>
<path d="M194.945 -119.639L197.645 -114.962L-81.4125 46.1523L-84.1127 41.4754L194.945 -119.639Z" fill="#1D93ED"/>
<path d="M199.446 -111.844L202.146 -107.167L-76.9121 53.9472L-79.6123 49.2703L199.446 -111.844Z" fill="#1D93ED"/>
<path d="M203.946 -104.049L206.646 -99.372L-72.4117 61.7421L-75.1119 57.0652L203.946 -104.049Z" fill="#1D93ED"/>
<path d="M208.446 -96.254L211.147 -91.5771L-67.9113 69.537L-70.6115 64.8601L208.446 -96.254Z" fill="#1D93ED"/>
<path d="M212.947 -88.4591L215.647 -83.7822L-63.4109 77.332L-66.1111 72.655L212.947 -88.4591Z" fill="#1D93ED"/>
<path d="M217.447 -80.6642L220.147 -75.9873L-58.9105 85.1269L-61.6107 80.4499L217.447 -80.6642Z" fill="#1D93ED"/>
<path d="M221.948 -72.8693L224.648 -68.1923L-54.4101 92.9218L-57.1103 88.2448L221.948 -72.8693Z" fill="#1D93ED"/>
<path d="M226.448 -65.0744L229.148 -60.3974L-49.9097 100.717L-52.6099 96.0397L226.448 -65.0744Z" fill="#1D93ED"/>
<path d="M230.948 -57.2795L233.649 -52.6025L-45.4093 108.512L-48.1095 103.835L230.948 -57.2795Z" fill="#1D93ED"/>
<path d="M235.449 -49.4846L238.149 -44.8076L-40.9089 116.307L-43.6091 111.63L235.449 -49.4846Z" fill="#1D93ED"/>
<path d="M239.949 -41.6896L242.649 -37.0127L-36.4085 124.101L-39.1087 119.424L239.949 -41.6896Z" fill="#1D93ED"/>
<path d="M244.45 -33.8947L247.15 -29.2178L-31.9081 131.896L-34.6084 127.219L244.45 -33.8947Z" fill="#1D93ED"/>
<path d="M248.95 -26.0998L251.65 -21.4229L-27.4077 139.691L-30.108 135.014L248.95 -26.0998Z" fill="#1D93ED"/>
<path d="M253.45 -18.3049L256.151 -13.628L-22.9073 147.486L-25.6076 142.809L253.45 -18.3049Z" fill="#1D93ED"/>
<path d="M257.951 -10.51L260.651 -5.83305L-18.4069 155.281L-21.1072 150.604L257.951 -10.51Z" fill="#1D93ED"/>
<path d="M262.451 -2.71508L265.151 1.96187L-13.9065 163.076L-16.6068 158.399L262.451 -2.71508Z" fill="#1D93ED"/>
<path d="M266.951 5.07983L269.652 9.75679L-9.40614 170.871L-12.1064 166.194L266.951 5.07983Z" fill="#1D93ED"/>
<path d="M271.452 12.8747L274.152 17.5517L-4.90574 178.666L-7.60598 173.989L271.452 12.8747Z" fill="#1D93ED"/>
<path d="M275.952 20.6697L278.653 25.3466L-0.405345 186.461L-3.10559 181.784L275.952 20.6697Z" fill="#1D93ED"/>
<path d="M280.453 28.4646L283.153 33.1415L4.09504 194.256L1.39481 189.579L280.453 28.4646Z" fill="#1D93ED"/>
<path d="M284.953 36.2595L287.653 40.9364L8.59543 202.051L5.89521 197.374L284.953 36.2595Z" fill="#1D93ED"/>
<path d="M289.453 44.0544L292.154 48.7313L13.0958 209.845L10.3956 205.169L289.453 44.0544Z" fill="#1D93ED"/>
<path d="M293.954 51.8493L296.654 56.5263L17.5962 217.64L14.896 212.963L293.954 51.8493Z" fill="#1D93ED"/>
<path d="M298.454 59.6442L301.154 64.3212L22.0966 225.435L19.3964 220.758L298.454 59.6442Z" fill="#1D93ED"/>
<path d="M302.955 67.4391L305.655 72.1161L26.597 233.23L23.8968 228.553L302.955 67.4391Z" fill="#1D93ED"/>
<path d="M307.455 75.234L310.155 79.911L31.0974 241.025L28.3972 236.348L307.455 75.234Z" fill="#1D93ED"/>
<path d="M311.955 83.029L314.656 87.7059L35.5978 248.82L32.8976 244.143L311.955 83.029Z" fill="#1D93ED"/>
<path d="M316.456 90.8239L319.156 95.5008L40.0982 256.615L37.398 251.938L316.456 90.8239Z" fill="#1D93ED"/>
<path d="M320.956 98.6188L323.656 103.296L44.5986 264.41L41.8984 259.733L320.956 98.6188Z" fill="#1D93ED"/>
<path d="M325.457 106.414L328.157 111.091L49.099 272.205L46.3988 267.528L325.457 106.414Z" fill="#1D93ED"/>
<path d="M329.957 114.209L332.657 118.886L53.5994 280L50.8992 275.323L329.957 114.209Z" fill="#1D93ED"/>
<path d="M334.457 122.004L337.158 126.68L58.0998 287.795L55.3995 283.118L334.457 122.004Z" fill="#1D93ED"/>
<path d="M338.958 129.798L341.658 134.475L62.6002 295.59L59.8999 290.913L338.958 129.798Z" fill="#1D93ED"/>
<path d="M343.458 137.593L346.158 142.27L67.1006 303.384L64.4003 298.707L343.458 137.593Z" fill="#1D93ED"/>
<path d="M347.959 145.388L350.659 150.065L71.601 311.179L68.9007 306.502L347.959 145.388Z" fill="#1D93ED"/>
<path d="M352.459 153.183L355.159 157.86L76.1014 318.974L73.4011 314.297L352.459 153.183Z" fill="#1D93ED"/>
<path d="M356.959 160.978L359.66 165.655L80.6018 326.769L77.9015 322.092L356.959 160.978Z" fill="#1D93ED"/>
<path d="M361.46 168.773L364.16 173.45L85.1021 334.564L82.4019 329.887L361.46 168.773Z" fill="#1D93ED"/>
<path d="M365.96 176.568L368.66 181.245L89.6025 342.359L86.9023 337.682L365.96 176.568Z" fill="#1D93ED"/>
<path d="M370.461 184.363L373.161 189.04L94.1029 350.154L91.4027 345.477L370.461 184.363Z" fill="#1D93ED"/>
<path d="M374.961 192.158L377.661 196.835L98.6033 357.949L95.9031 353.272L374.961 192.158Z" fill="#1D93ED"/>
<path d="M379.461 199.953L382.162 204.63L103.104 365.744L100.403 361.067L379.461 199.953Z" fill="#1D93ED"/>
<path d="M383.962 207.748L386.662 212.425L107.604 373.539L104.904 368.862L383.962 207.748Z" fill="#1D93ED"/>
<path d="M388.462 215.542L391.162 220.219L112.105 381.334L109.404 376.657L388.462 215.542Z" fill="#1D93ED"/>
<path d="M392.963 223.337L395.663 228.014L116.605 389.128L113.905 384.452L392.963 223.337Z" fill="#1D93ED"/>
<path d="M397.463 231.132L400.163 235.809L121.105 396.923L118.405 392.246L397.463 231.132Z" fill="#1D93ED"/>
<path d="M401.963 238.927L404.664 243.604L125.606 404.718L122.905 400.041L401.963 238.927Z" fill="#1D93ED"/>
<path d="M406.464 246.722L409.164 251.399L130.106 412.513L127.406 407.836L406.464 246.722Z" fill="#1D93ED"/>
<path d="M410.964 254.517L413.664 259.194L134.606 420.308L131.906 415.631L410.964 254.517Z" fill="#1D93ED"/>
<path d="M415.465 262.312L418.165 266.989L139.107 428.103L136.407 423.426L415.465 262.312Z" fill="#1D93ED"/>
<path d="M419.965 270.107L422.665 274.784L143.607 435.898L140.907 431.221L419.965 270.107Z" fill="#1D93ED"/>
<path d="M424.465 277.902L427.166 282.579L148.108 443.693L145.407 439.016L424.465 277.902Z" fill="#1D93ED"/>
<path d="M428.966 285.697L431.666 290.374L152.608 451.488L149.908 446.811L428.966 285.697Z" fill="#1D93ED"/>
<path d="M433.466 293.492L436.166 298.169L157.108 459.283L154.408 454.606L433.466 293.492Z" fill="#1D93ED"/>
<path d="M437.966 301.286L440.667 305.963L161.609 467.078L158.909 462.401L437.966 301.286Z" fill="#1D93ED"/>
<path d="M442.467 309.081L445.167 313.758L166.109 474.873L163.409 470.196L442.467 309.081Z" fill="#1D93ED"/>
<path d="M446.967 316.876L449.668 321.553L170.61 482.667L167.909 477.99L446.967 316.876Z" fill="#1D93ED"/>
</g>
<defs>
<filter id="filter0_f_431_1586" x="51.194" y="-0.982422" width="205.806" height="257.982" filterUnits="userSpaceOnUse" color-interpolation-filters="sRGB">
<feFlood flood-opacity="0" result="BackgroundImageFix"/>
<feBlend mode="normal" in="SourceGraphic" in2="BackgroundImageFix" result="shape"/>
<feGaussianBlur stdDeviation="8" result="effect1_foregroundBlur_431_1586"/>
</filter>
</defs>
</svg>
