<svg width="315" height="47" viewBox="0 0 315 47" fill="none" xmlns="http://www.w3.org/2000/svg">
<path d="M7.80114 6.36364C7.74148 5.85985 7.49953 5.46875 7.07528 5.19034C6.65104 4.91193 6.13068 4.77273 5.5142 4.77273C5.06345 4.77273 4.66903 4.84564 4.33097 4.99148C3.99621 5.13731 3.73438 5.33783 3.54545 5.59304C3.35985 5.84825 3.26705 6.13826 3.26705 6.46307C3.26705 6.73485 3.33168 6.96851 3.46094 7.16406C3.59351 7.3563 3.76255 7.51705 3.96804 7.64631C4.17353 7.77225 4.38897 7.87666 4.61435 7.95952C4.83973 8.03906 5.04688 8.10369 5.2358 8.15341L6.26989 8.43182C6.53504 8.50142 6.83002 8.59754 7.15483 8.72017C7.48295 8.8428 7.79616 9.01018 8.09446 9.2223C8.39607 9.43111 8.64465 9.69957 8.8402 10.0277C9.03575 10.3558 9.13352 10.7585 9.13352 11.2358C9.13352 11.786 8.98935 12.2831 8.70099 12.7273C8.41596 13.1714 7.99834 13.5244 7.44815 13.7862C6.90128 14.0481 6.23674 14.179 5.45455 14.179C4.72538 14.179 4.09399 14.0613 3.56037 13.826C3.03007 13.5907 2.61245 13.2625 2.30753 12.8416C2.00592 12.4207 1.83523 11.9318 1.79545 11.375H3.06818C3.10133 11.7595 3.23059 12.0777 3.45597 12.3295C3.68466 12.5781 3.97301 12.7637 4.32102 12.8864C4.67235 13.0057 5.05019 13.0653 5.45455 13.0653C5.92519 13.0653 6.34777 12.9891 6.7223 12.8366C7.09683 12.6809 7.39347 12.4654 7.61222 12.1903C7.83097 11.9119 7.94034 11.5871 7.94034 11.2159C7.94034 10.8778 7.84588 10.6027 7.65696 10.3906C7.46804 10.1785 7.21946 10.0062 6.91122 9.87358C6.60298 9.741 6.26989 9.625 5.91193 9.52557L4.65909 9.16761C3.86364 8.93892 3.2339 8.61245 2.76989 8.18821C2.30587 7.76397 2.07386 7.20881 2.07386 6.52273C2.07386 5.95265 2.22798 5.45549 2.53622 5.03125C2.84777 4.60369 3.26539 4.27225 3.78906 4.03693C4.31605 3.7983 4.90436 3.67898 5.55398 3.67898C6.21023 3.67898 6.79356 3.79664 7.30398 4.03196C7.81439 4.26397 8.21875 4.58215 8.51705 4.98651C8.81866 5.39086 8.97775 5.8499 8.99432 6.36364H7.80114ZM14.3226 6.36364V7.35795H10.3652V6.36364H14.3226ZM11.5186 4.53409H12.6919V11.8125C12.6919 12.1439 12.74 12.3925 12.8361 12.5582C12.9355 12.7206 13.0615 12.83 13.214 12.8864C13.3697 12.9394 13.5338 12.9659 13.7061 12.9659C13.8354 12.9659 13.9415 12.9593 14.0243 12.946C14.1072 12.9295 14.1735 12.9162 14.2232 12.9062L14.4618 13.9602C14.3823 13.9901 14.2712 14.0199 14.1287 14.0497C13.9862 14.0829 13.8056 14.0994 13.5868 14.0994C13.2554 14.0994 12.9306 14.0282 12.6124 13.8857C12.2975 13.7431 12.0357 13.526 11.8269 13.2344C11.6214 12.9427 11.5186 12.5748 11.5186 12.1307V4.53409ZM18.3347 14.179C17.8508 14.179 17.4116 14.0878 17.0172 13.9055C16.6228 13.7199 16.3096 13.4531 16.0776 13.1051C15.8456 12.7538 15.7296 12.3295 15.7296 11.8324C15.7296 11.3949 15.8158 11.0402 15.9881 10.7685C16.1605 10.4934 16.3908 10.2779 16.6792 10.1222C16.9675 9.96638 17.2857 9.85038 17.6337 9.77415C17.985 9.6946 18.338 9.63163 18.6926 9.58523C19.1567 9.52557 19.5328 9.48082 19.8212 9.45099C20.1129 9.41785 20.325 9.36316 20.4576 9.28693C20.5935 9.2107 20.6614 9.07812 20.6614 8.8892V8.84943C20.6614 8.3589 20.5272 7.97775 20.2587 7.70597C19.9935 7.43419 19.5909 7.2983 19.0506 7.2983C18.4905 7.2983 18.0513 7.42093 17.7331 7.66619C17.415 7.91146 17.1912 8.1733 17.062 8.4517L15.9483 8.05398C16.1472 7.58996 16.4123 7.22869 16.7438 6.97017C17.0785 6.70833 17.4431 6.52604 17.8375 6.4233C18.2353 6.31723 18.6264 6.2642 19.0108 6.2642C19.2561 6.2642 19.5378 6.29403 19.856 6.35369C20.1775 6.41004 20.4874 6.5277 20.7857 6.70668C21.0873 6.88565 21.3375 7.15578 21.5364 7.51705C21.7353 7.87831 21.8347 8.36222 21.8347 8.96875V14H20.6614V12.9659H20.6017C20.5222 13.1316 20.3896 13.3089 20.204 13.4979C20.0184 13.6868 19.7715 13.8475 19.4632 13.9801C19.155 14.1127 18.7788 14.179 18.3347 14.179ZM18.5137 13.125C18.9777 13.125 19.3688 13.0339 19.687 12.8516C20.0085 12.6693 20.2504 12.4339 20.4128 12.1456C20.5785 11.8572 20.6614 11.554 20.6614 11.2358V10.1619C20.6117 10.2216 20.5023 10.2763 20.3333 10.326C20.1676 10.3724 19.9753 10.4138 19.7566 10.4503C19.5411 10.4834 19.3307 10.5133 19.1252 10.5398C18.923 10.563 18.7589 10.5829 18.633 10.5994C18.3281 10.6392 18.043 10.7038 17.7779 10.7933C17.516 10.8795 17.3039 11.0104 17.1415 11.1861C16.9824 11.3584 16.9029 11.5937 16.9029 11.892C16.9029 12.2997 17.0537 12.608 17.3553 12.8168C17.6602 13.0223 18.0463 13.125 18.5137 13.125ZM27.2972 6.36364V7.35795H23.3398V6.36364H27.2972ZM24.4933 4.53409H25.6665V11.8125C25.6665 12.1439 25.7146 12.3925 25.8107 12.5582C25.9102 12.7206 26.0361 12.83 26.1886 12.8864C26.3443 12.9394 26.5084 12.9659 26.6808 12.9659C26.81 12.9659 26.9161 12.9593 26.9989 12.946C27.0818 12.9295 27.1481 12.9162 27.1978 12.9062L27.4364 13.9602C27.3569 13.9901 27.2459 14.0199 27.1033 14.0497C26.9608 14.0829 26.7802 14.0994 26.5614 14.0994C26.23 14.0994 25.9052 14.0282 25.587 13.8857C25.2721 13.7431 25.0103 13.526 24.8015 13.2344C24.596 12.9427 24.4933 12.5748 24.4933 12.1307V4.53409ZM32.1818 14.1591C31.446 14.1591 30.8113 13.9967 30.2777 13.6719C29.7474 13.3438 29.3381 12.8864 29.0497 12.2997C28.7647 11.7098 28.6222 11.0237 28.6222 10.2415C28.6222 9.45928 28.7647 8.76989 29.0497 8.1733C29.3381 7.57339 29.7391 7.10606 30.2528 6.77131C30.7699 6.43324 31.3731 6.2642 32.0625 6.2642C32.4602 6.2642 32.853 6.33049 33.2408 6.46307C33.6286 6.59564 33.9815 6.81108 34.2997 7.10938C34.6179 7.40436 34.8714 7.79545 35.0604 8.28267C35.2493 8.76989 35.3438 9.36979 35.3438 10.0824V10.5795H29.4574V9.56534H34.1506C34.1506 9.13447 34.0644 8.75 33.892 8.41193C33.723 8.07386 33.4811 7.80705 33.1662 7.61151C32.8546 7.41596 32.4867 7.31818 32.0625 7.31818C31.5952 7.31818 31.1908 7.43419 30.8494 7.66619C30.5114 7.89489 30.2512 8.19318 30.0689 8.56108C29.8866 8.92898 29.7955 9.32339 29.7955 9.74432V10.4205C29.7955 10.9972 29.8949 11.486 30.0938 11.8871C30.2959 12.2848 30.576 12.5881 30.9339 12.7969C31.2919 13.0024 31.7079 13.1051 32.1818 13.1051C32.4901 13.1051 32.7685 13.062 33.017 12.9759C33.2689 12.8864 33.486 12.7538 33.6683 12.5781C33.8506 12.3991 33.9915 12.1771 34.0909 11.9119L35.2244 12.2301C35.1051 12.6146 34.9046 12.9527 34.6229 13.2443C34.3411 13.5327 33.9931 13.758 33.5788 13.9205C33.1645 14.0795 32.6989 14.1591 32.1818 14.1591ZM44.6257 3.81818V14H43.3928V5.1108H43.3331L40.8473 6.76136V5.50852L43.3928 3.81818H44.6257Z" fill="white"/>
<path d="M293.92 15.0994C293.503 15.0994 293.128 15.0166 292.794 14.8509C292.461 14.6851 292.193 14.4579 291.992 14.169C291.791 13.8802 291.681 13.5511 291.662 13.1818H292.514C292.547 13.5109 292.696 13.7831 292.961 13.9986C293.229 14.2116 293.548 14.3182 293.92 14.3182C294.218 14.3182 294.484 14.2483 294.716 14.1087C294.95 13.969 295.133 13.7772 295.266 13.5334C295.401 13.2872 295.468 13.009 295.468 12.6989C295.468 12.3816 295.399 12.0987 295.259 11.8501C295.122 11.5992 294.932 11.4015 294.691 11.2571C294.449 11.1127 294.173 11.0393 293.863 11.0369C293.641 11.0346 293.412 11.0689 293.178 11.1399C292.944 11.2086 292.751 11.2973 292.599 11.4062L291.775 11.3068L292.216 7.72727H295.994V8.50852H292.954L292.699 10.6534H292.741C292.89 10.535 293.077 10.4368 293.302 10.3587C293.527 10.2805 293.761 10.2415 294.005 10.2415C294.45 10.2415 294.847 10.348 295.195 10.5611C295.545 10.7718 295.82 11.0606 296.019 11.4276C296.22 11.7945 296.321 12.2135 296.321 12.6847C296.321 13.1487 296.217 13.563 296.008 13.9276C295.802 14.2898 295.518 14.5762 295.156 14.7869C294.794 14.9953 294.382 15.0994 293.92 15.0994ZM300.004 15.0994C299.587 15.0994 299.212 15.0166 298.878 14.8509C298.545 14.6851 298.277 14.4579 298.076 14.169C297.875 13.8802 297.765 13.5511 297.746 13.1818H298.598C298.631 13.5109 298.78 13.7831 299.045 13.9986C299.313 14.2116 299.632 14.3182 300.004 14.3182C300.302 14.3182 300.568 14.2483 300.8 14.1087C301.034 13.969 301.217 13.7772 301.35 13.5334C301.485 13.2872 301.552 13.009 301.552 12.6989C301.552 12.3816 301.483 12.0987 301.343 11.8501C301.206 11.5992 301.016 11.4015 300.775 11.2571C300.533 11.1127 300.257 11.0393 299.947 11.0369C299.725 11.0346 299.496 11.0689 299.262 11.1399C299.028 11.2086 298.835 11.2973 298.683 11.4062L297.859 11.3068L298.3 7.72727H302.078V8.50852H299.038L298.782 10.6534H298.825C298.974 10.535 299.161 10.4368 299.386 10.3587C299.611 10.2805 299.845 10.2415 300.089 10.2415C300.534 10.2415 300.931 10.348 301.279 10.5611C301.629 10.7718 301.904 11.0606 302.103 11.4276C302.304 11.7945 302.405 12.2135 302.405 12.6847C302.405 13.1487 302.3 13.563 302.092 13.9276C301.886 14.2898 301.602 14.5762 301.24 14.7869C300.878 14.9953 300.466 15.0994 300.004 15.0994ZM310.335 13.6364V13.2528C310.335 12.9877 310.39 12.745 310.499 12.5249C310.61 12.3023 310.771 12.1248 310.982 11.9922C311.195 11.8572 311.453 11.7898 311.756 11.7898C312.063 11.7898 312.321 11.8572 312.53 11.9922C312.738 12.1248 312.896 12.3023 313.002 12.5249C313.109 12.745 313.162 12.9877 313.162 13.2528V13.6364C313.162 13.9015 313.107 14.1454 312.999 14.3679C312.892 14.5881 312.733 14.7656 312.523 14.9006C312.314 15.0331 312.059 15.0994 311.756 15.0994C311.448 15.0994 311.189 15.0331 310.978 14.9006C310.767 14.7656 310.607 14.5881 310.499 14.3679C310.39 14.1454 310.335 13.9015 310.335 13.6364ZM311.06 13.2528V13.6364C311.06 13.8565 311.112 14.0542 311.216 14.2294C311.32 14.4022 311.5 14.4886 311.756 14.4886C312.004 14.4886 312.179 14.4022 312.281 14.2294C312.385 14.0542 312.438 13.8565 312.438 13.6364V13.2528C312.438 13.0327 312.388 12.8362 312.288 12.6634C312.189 12.4882 312.011 12.4006 311.756 12.4006C311.507 12.4006 311.328 12.4882 311.219 12.6634C311.113 12.8362 311.06 13.0327 311.06 13.2528ZM306.713 9.47443V9.09091C306.713 8.82576 306.768 8.5831 306.876 8.36293C306.988 8.14039 307.149 7.96283 307.359 7.83026C307.572 7.69531 307.83 7.62784 308.134 7.62784C308.441 7.62784 308.699 7.69531 308.908 7.83026C309.116 7.96283 309.273 8.14039 309.38 8.36293C309.487 8.5831 309.54 8.82576 309.54 9.09091V9.47443C309.54 9.73958 309.485 9.98343 309.376 10.206C309.27 10.4261 309.111 10.6037 308.901 10.7386C308.692 10.8712 308.437 10.9375 308.134 10.9375C307.826 10.9375 307.567 10.8712 307.356 10.7386C307.145 10.6037 306.985 10.4261 306.876 10.206C306.768 9.98343 306.713 9.73958 306.713 9.47443ZM307.438 9.09091V9.47443C307.438 9.6946 307.49 9.89228 307.594 10.0675C307.698 10.2403 307.878 10.3267 308.134 10.3267C308.382 10.3267 308.557 10.2403 308.659 10.0675C308.763 9.89228 308.815 9.6946 308.815 9.47443V9.09091C308.815 8.87074 308.766 8.67424 308.666 8.50142C308.567 8.32623 308.389 8.23864 308.134 8.23864C307.885 8.23864 307.706 8.32623 307.597 8.50142C307.491 8.67424 307.438 8.87074 307.438 9.09091ZM306.983 15L311.983 7.72727H312.793L307.793 15H306.983Z" fill="white" fill-opacity="0.5"/>
<rect y="25" width="315" height="17" rx="2" fill="#1D93ED" fill-opacity="0.1"/>
<rect x="3.5" y="28.5" width="308" height="10" rx="1.5" stroke="#1D93ED" stroke-opacity="0.2"/>
<g filter="url(#filter0_f_431_1606)">
<path d="M4 30C4 29.4477 4.44772 29 5 29H161V38H5C4.44771 38 4 37.5523 4 37V30Z" fill="#1D93ED" fill-opacity="0.5"/>
</g>
<mask id="mask0_431_1606" style="mask-type:alpha" maskUnits="userSpaceOnUse" x="4" y="29" width="157" height="9">
<path d="M4 30C4 29.4477 4.44772 29 5 29H161V38H5C4.44771 38 4 37.5523 4 37V30Z" fill="#1D93ED"/>
</mask>
<g mask="url(#mask0_431_1606)">
<path d="M12.5 -91L15.0981 -89.5L-74.4019 65.5185L-77 64.0185L12.5 -91Z" fill="#1D93ED"/>
<path d="M16.8301 -88.5L19.4282 -87L-70.0718 68.0185L-72.6699 66.5185L16.8301 -88.5Z" fill="#1D93ED"/>
<path d="M21.1603 -86L23.7583 -84.5L-65.7417 70.5185L-68.3397 69.0185L21.1603 -86Z" fill="#1D93ED"/>
<path d="M25.4904 -83.5L28.0885 -82L-61.4115 73.0185L-64.0096 71.5185L25.4904 -83.5Z" fill="#1D93ED"/>
<path d="M29.8205 -81L32.4186 -79.5L-57.0814 75.5185L-59.6795 74.0185L29.8205 -81Z" fill="#1D93ED"/>
<path d="M34.1506 -78.5L36.7487 -77L-52.7513 78.0185L-55.3494 76.5185L34.1506 -78.5Z" fill="#1D93ED"/>
<path d="M38.4808 -76L41.0788 -74.5L-48.4212 80.5185L-51.0192 79.0185L38.4808 -76Z" fill="#1D93ED"/>
<path d="M42.8109 -73.5L45.409 -72L-44.091 83.0185L-46.6891 81.5185L42.8109 -73.5Z" fill="#1D93ED"/>
<path d="M47.141 -71L49.7391 -69.5L-39.7609 85.5185L-42.359 84.0185L47.141 -71Z" fill="#1D93ED"/>
<path d="M51.4711 -68.5L54.0692 -67L-35.4308 88.0185L-38.0289 86.5185L51.4711 -68.5Z" fill="#1D93ED"/>
<path d="M55.8013 -66L58.3993 -64.5L-31.1007 90.5185L-33.6987 89.0185L55.8013 -66Z" fill="#1D93ED"/>
<path d="M60.1314 -63.5L62.7295 -62L-26.7705 93.0185L-29.3686 91.5185L60.1314 -63.5Z" fill="#1D93ED"/>
<path d="M64.4615 -61L67.0596 -59.5L-22.4404 95.5185L-25.0385 94.0185L64.4615 -61Z" fill="#1D93ED"/>
<path d="M68.7917 -58.5L71.3897 -57L-18.1103 98.0185L-20.7083 96.5185L68.7917 -58.5Z" fill="#1D93ED"/>
<path d="M73.1218 -56L75.7199 -54.5L-13.7801 100.519L-16.3782 99.0185L73.1218 -56Z" fill="#1D93ED"/>
<path d="M77.4519 -53.5L80.05 -52L-9.45002 103.019L-12.0481 101.519L77.4519 -53.5Z" fill="#1D93ED"/>
<path d="M81.782 -51L84.3801 -49.5L-5.11989 105.519L-7.71797 104.019L81.782 -51Z" fill="#1D93ED"/>
<path d="M86.1122 -48.5L88.7102 -47L-0.789766 108.019L-3.38784 106.519L86.1122 -48.5Z" fill="#1D93ED"/>
<path d="M90.4423 -46L93.0404 -44.5L3.54036 110.519L0.942285 109.019L90.4423 -46Z" fill="#1D93ED"/>
<path d="M94.7724 -43.5L97.3705 -42L7.87049 113.019L5.27241 111.519L94.7724 -43.5Z" fill="#1D93ED"/>
<path d="M99.1025 -41L101.701 -39.5L12.2006 115.519L9.60254 114.019L99.1025 -41Z" fill="#1D93ED"/>
<path d="M103.433 -38.5L106.031 -37L16.5307 118.019L13.9327 116.519L103.433 -38.5Z" fill="#1D93ED"/>
<path d="M107.763 -36L110.361 -34.5L20.8609 120.519L18.2628 119.019L107.763 -36Z" fill="#1D93ED"/>
<path d="M112.093 -33.5L114.691 -32L25.191 123.019L22.5929 121.519L112.093 -33.5Z" fill="#1D93ED"/>
<path d="M116.423 -31L119.021 -29.5L29.5211 125.519L26.923 124.019L116.423 -31Z" fill="#1D93ED"/>
<path d="M120.753 -28.5L123.351 -27L33.8512 128.019L31.2532 126.519L120.753 -28.5Z" fill="#1D93ED"/>
<path d="M125.083 -26L127.681 -24.5L38.1814 130.519L35.5833 129.019L125.083 -26Z" fill="#1D93ED"/>
<path d="M129.413 -23.5L132.012 -22L42.5115 133.019L39.9134 131.519L129.413 -23.5Z" fill="#1D93ED"/>
<path d="M133.744 -21L136.342 -19.5L46.8416 135.519L44.2436 134.019L133.744 -21Z" fill="#1D93ED"/>
<path d="M138.074 -18.5L140.672 -17L51.1718 138.019L48.5737 136.519L138.074 -18.5Z" fill="#1D93ED"/>
<path d="M142.404 -16L145.002 -14.5L55.5019 140.519L52.9038 139.019L142.404 -16Z" fill="#1D93ED"/>
<path d="M146.734 -13.5L149.332 -12L59.832 143.019L57.2339 141.519L146.734 -13.5Z" fill="#1D93ED"/>
<path d="M151.064 -11L153.662 -9.5L64.1621 145.519L61.5641 144.019L151.064 -11Z" fill="#1D93ED"/>
<path d="M155.394 -8.5L157.992 -7L68.4923 148.019L65.8942 146.519L155.394 -8.5Z" fill="#1D93ED"/>
<path d="M159.724 -6L162.322 -4.5L72.8224 150.519L70.2243 149.019L159.724 -6Z" fill="#1D93ED"/>
<path d="M164.054 -3.5L166.653 -2L77.1525 153.019L74.5544 151.519L164.054 -3.5Z" fill="#1D93ED"/>
<path d="M168.385 -1L170.983 0.5L81.4826 155.519L78.8846 154.019L168.385 -1Z" fill="#1D93ED"/>
<path d="M172.715 1.5L175.313 3L85.8128 158.019L83.2147 156.519L172.715 1.5Z" fill="#1D93ED"/>
<path d="M177.045 4L179.643 5.5L90.1429 160.519L87.5448 159.019L177.045 4Z" fill="#1D93ED"/>
<path d="M181.375 6.5L183.973 8L94.473 163.019L91.875 161.519L181.375 6.5Z" fill="#1D93ED"/>
<path d="M185.705 9L188.303 10.5L98.8032 165.519L96.2051 164.019L185.705 9Z" fill="#1D93ED"/>
<path d="M190.035 11.5L192.633 13L103.133 168.019L100.535 166.519L190.035 11.5Z" fill="#1D93ED"/>
<path d="M194.365 14L196.963 15.5L107.463 170.519L104.865 169.019L194.365 14Z" fill="#1D93ED"/>
<path d="M198.695 16.5L201.294 18L111.794 173.019L109.195 171.519L198.695 16.5Z" fill="#1D93ED"/>
<path d="M203.026 19L205.624 20.5L116.124 175.519L113.526 174.019L203.026 19Z" fill="#1D93ED"/>
<path d="M207.356 21.5L209.954 23L120.454 178.019L117.856 176.519L207.356 21.5Z" fill="#1D93ED"/>
<path d="M211.686 24L214.284 25.5L124.784 180.519L122.186 179.019L211.686 24Z" fill="#1D93ED"/>
<path d="M216.016 26.5L218.614 28L129.114 183.019L126.516 181.519L216.016 26.5Z" fill="#1D93ED"/>
<path d="M220.346 29L222.944 30.5L133.444 185.519L130.846 184.019L220.346 29Z" fill="#1D93ED"/>
<path d="M224.676 31.5L227.274 33L137.774 188.019L135.176 186.519L224.676 31.5Z" fill="#1D93ED"/>
<path d="M229.006 34L231.604 35.5L142.104 190.519L139.506 189.019L229.006 34Z" fill="#1D93ED"/>
<path d="M233.336 36.5L235.935 38L146.435 193.019L143.836 191.519L233.336 36.5Z" fill="#1D93ED"/>
<path d="M237.667 39L240.265 40.5L150.765 195.519L148.167 194.019L237.667 39Z" fill="#1D93ED"/>
<path d="M241.997 41.5L244.595 43L155.095 198.019L152.497 196.519L241.997 41.5Z" fill="#1D93ED"/>
<path d="M246.327 44L248.925 45.5L159.425 200.519L156.827 199.019L246.327 44Z" fill="#1D93ED"/>
<path d="M250.657 46.5L253.255 48L163.755 203.019L161.157 201.519L250.657 46.5Z" fill="#1D93ED"/>
<path d="M254.987 49L257.585 50.5L168.085 205.519L165.487 204.019L254.987 49Z" fill="#1D93ED"/>
<path d="M259.317 51.5L261.915 53L172.415 208.019L169.817 206.519L259.317 51.5Z" fill="#1D93ED"/>
<path d="M263.647 54L266.245 55.5L176.745 210.519L174.147 209.019L263.647 54Z" fill="#1D93ED"/>
<path d="M267.977 56.5L270.576 58L181.076 213.019L178.477 211.519L267.977 56.5Z" fill="#1D93ED"/>
<path d="M272.308 59L274.906 60.5L185.406 215.519L182.808 214.019L272.308 59Z" fill="#1D93ED"/>
<path d="M276.638 61.5L279.236 63L189.736 218.019L187.138 216.519L276.638 61.5Z" fill="#1D93ED"/>
<path d="M280.968 64L283.566 65.5L194.066 220.519L191.468 219.019L280.968 64Z" fill="#1D93ED"/>
<path d="M285.298 66.5L287.896 68L198.396 223.019L195.798 221.519L285.298 66.5Z" fill="#1D93ED"/>
<path d="M289.628 69L292.226 70.5L202.726 225.519L200.128 224.019L289.628 69Z" fill="#1D93ED"/>
<path d="M293.958 71.5L296.556 73L207.056 228.019L204.458 226.519L293.958 71.5Z" fill="#1D93ED"/>
<path d="M298.288 74L300.886 75.5L211.386 230.519L208.788 229.019L298.288 74Z" fill="#1D93ED"/>
<path d="M302.619 76.5L305.217 78L215.717 233.019L213.119 231.519L302.619 76.5Z" fill="#1D93ED"/>
</g>
<path d="M0.5 46.5H58M65.5 46.5H78M83.5 46.5H90.5" stroke="white"/>
<defs>
<filter id="filter0_f_431_1606" x="0" y="25" width="165" height="17" filterUnits="userSpaceOnUse" color-interpolation-filters="sRGB">
<feFlood flood-opacity="0" result="BackgroundImageFix"/>
<feBlend mode="normal" in="SourceGraphic" in2="BackgroundImageFix" result="shape"/>
<feGaussianBlur stdDeviation="2" result="effect1_foregroundBlur_431_1606"/>
</filter>
</defs>
</svg>
