<svg width="24" height="16" viewBox="0 0 24 16" fill="none" xmlns="http://www.w3.org/2000/svg">
<path d="M18.742 11V10C18.742 6.832 16.637 4.159 13.75 3.296M4.75799 11V10C4.75799 6.832 6.86299 4.159 9.74999 3.296M13.75 3H19M9.74999 3H4.49999M10.75 1H12.75C13.302 1 13.75 1.448 13.75 2V4C13.75 4.552 13.302 5 12.75 5H10.75C10.198 5 9.74999 4.552 9.74999 4V2C9.74999 1.448 10.198 1 10.75 1ZM16.75 14.011V11.988C16.75 11.443 17.193 11 17.739 11H19.762C20.307 11 20.75 11.443 20.75 11.989V14.012C20.75 14.557 20.307 15 19.761 15H17.738C17.193 15 16.75 14.557 16.75 14.011ZM6.74999 14.011V11.988C6.74999 11.443 6.30699 11 5.76099 11H3.73899C3.19299 11 2.74999 11.443 2.74999 11.989V14.012C2.74999 14.557 3.19299 15 3.73899 15H5.76199C6.30699 15 6.74999 14.557 6.74999 14.011ZM21.9874 1.76256C22.6708 2.44598 22.6708 3.55402 21.9874 4.23743C21.304 4.92085 20.1959 4.92085 19.5125 4.23743C18.8291 3.55401 18.8291 2.44597 19.5125 1.76256C20.1959 1.07914 21.304 1.07914 21.9874 1.76256ZM3.98743 1.76256C4.67085 2.44598 4.67085 3.55402 3.98743 4.23743C3.30402 4.92085 2.19597 4.92085 1.51256 4.23743C0.829145 3.55401 0.829145 2.44597 1.51256 1.76256C2.19598 1.07914 3.30402 1.07914 3.98743 1.76256Z" stroke="white" stroke-width="1.5" stroke-linecap="round" stroke-linejoin="round"/>
</svg>
