<svg width="18" height="20" viewBox="0 0 18 20" fill="none" xmlns="http://www.w3.org/2000/svg">
<path d="M1 12.118C1 13.58 4.374 14.765 8.536 14.765M16 3.647C16 5.109 12.642 6.294 8.5 6.294C4.358 6.294 1 5.109 1 3.647M16 3.647C16 2.185 12.642 1 8.5 1C4.358 1 1 2.185 1 3.647M16 3.647V11M1 3.647V16.353C1 17.815 4.374 19 8.536 19M16 7.882C16 9.344 12.642 10.529 8.5 10.529C4.358 10.529 1 9.345 1 7.882M17 15L14 18L12 16" stroke="white" stroke-width="1.5" stroke-linecap="round" stroke-linejoin="round"/>
</svg>
