<svg width="22" height="31" viewBox="0 0 22 31" fill="none" xmlns="http://www.w3.org/2000/svg">
<path d="M20.785 19.2542C20.0404 18.0439 17.7683 15.3905 19.0938 10.4019C17.7226 11.446 15.3915 13.2918 15.7343 15.3351C10.8358 12.112 12.3062 1.24313 12.5466 0.00607303C11.6663 -0.289004 1.15348 10.2203 5.06151 20.3042C3.14177 18.8461 0.947794 16.2585 1.22204 14.0795C0.125052 16.6217 -2.97349 29.3912 8.42104 30.7096C15.7622 31.5589 16.9255 30.3428 18.3625 29.6505C21.5319 27.8927 23.347 23.4166 20.785 19.2542ZM15.7 27.7547C14.321 28.6386 11.9113 28.2736 11.2444 28.1501L11.2549 29.2078L11.2385 28.1492C11.1301 28.1288 11.0694 28.1156 11.0694 28.1156L11.1489 27.0388C6.72482 28.8365 6.10456 24.1974 5.96835 23.1801C9.31691 22.6576 10.7544 24.5874 11.2248 25.3065L11.1982 23.3953C11.1768 23.398 11.185 23.3985 11.164 23.4003C6.47479 22.2504 6.04468 16.6316 11.0108 13.6014L11.164 23.4003L11.1982 23.3953L11.1004 13.329C17.1549 18.2382 13.128 23.0893 11.1982 23.3953L11.2165 25.2942L11.2705 25.3786V25.3482C11.7207 24.3382 14.2575 21.6598 18.2226 22.6244C18.7405 24.0435 17.7912 26.529 15.7 27.7547Z" fill="#4DFFFF"/>
<path d="M11.2307 26.4436L11.2732 25.1271V25.1235L11.2275 25.7613L11.2307 26.4436Z" fill="#4DFFFF"/>
<path d="M11.2206 26.7523L11.2083 25.9711L11.1484 26.7814L11.2202 26.7523H11.2206Z" fill="#4DFFFF"/>
<path d="M11.2243 25.76L11.2174 25.0377L11.1937 25.0014L11.2088 25.9711L11.2243 25.76Z" fill="#4DFFFF"/>
<path d="M11.2206 26.7523L11.2385 27.8913H11.2449L11.2307 26.4418L11.2206 26.7523Z" fill="#4DFFFF"/>
<path d="M15.5592 3.65323C14.9193 4.40999 11.8647 9.72865 15.6049 11.7642C16.0927 11.3103 17.6207 10.3406 16.7783 8.09483C16.1763 6.49097 15.8641 6.38746 15.6278 5.825C15.4797 5.47363 15.5592 3.65323 15.5592 3.65323Z" fill="#4DFFFF"/>
<path d="M10.6959 12.6658H11.3815V28.9178H10.6959V12.6658Z" fill="#4DFFFF"/>
<path d="M20.8233 19.7477L21.2515 20.2794L8.47314 30.4311L8.04487 29.8993L20.8233 19.7477Z" fill="#4DFFFF"/>
<path d="M14.6268 21.7451H15.3124V24.8775H14.6268V21.7451Z" fill="#4DFFFF"/>
<path d="M12.3871 23.4702H13.0727V26.6025H12.3871V23.4702Z" fill="#4DFFFF"/>
<path d="M9.50751 23.1978H10.1931V26.1032H9.50751V23.1978Z" fill="#4DFFFF"/>
<path d="M8.18198 22.5168H8.8676V24.9229H8.18198V22.5168Z" fill="#4DFFFF"/>
<path d="M6.72795 18.3385L7.16044 17.8101L11.2713 21.1291L10.8388 21.6575L6.72795 18.3385Z" fill="#4DFFFF"/>
<path d="M6.44508 15.5559L6.81245 14.981L11.2855 17.8003L10.9182 18.3753L6.44508 15.5559Z" fill="#4DFFFF"/>
<path d="M5.15934 22.8423L5.57938 22.3041L11.234 26.6574L10.814 27.1956L5.15934 22.8423Z" fill="#4DFFFF"/>
</svg>
