<svg width="20" height="20" viewBox="0 0 20 20" fill="none" xmlns="http://www.w3.org/2000/svg">
<path d="M17 1H7.667C7.018 1 6.386 1.211 5.867 1.6L2.2 4.35C1.445 4.917 1 5.806 1 6.75V17C1 18.105 1.895 19 3 19H13.5C14.444 19 15.333 18.555 15.9 17.8L18.6 14.2C18.86 13.854 19 13.433 19 13V3C19 1.895 18.105 1 17 1V1Z" stroke="white" stroke-width="1.5" stroke-linecap="round" stroke-linejoin="round"/>
<path d="M15 5.31012L18.64 1.87012" stroke="white" stroke-width="1.5" stroke-linecap="round" stroke-linejoin="round"/>
<path d="M15 18.5901V5.31006" stroke="white" stroke-width="1.5" stroke-linecap="round" stroke-linejoin="round"/>
<path d="M15 5.31006H1.38" stroke="white" stroke-width="1.5" stroke-linecap="round" stroke-linejoin="round"/>
<path d="M8.35999 5.31L13.29 1" stroke="white" stroke-width="1.5" stroke-linecap="round" stroke-linejoin="round"/>
<path d="M6 9H10" stroke="white" stroke-width="1.5" stroke-linecap="round" stroke-linejoin="round"/>
</svg>
