<svg width="20" height="22" viewBox="0 0 20 22" fill="none" xmlns="http://www.w3.org/2000/svg">
<path d="M10 21.1618V11.0817M10 11.0817L18.73 6.04175M10 11.0817L1.27 6.04175M19 15.1228V7.04075C19 6.32575 18.619 5.66575 18 5.30875L11 1.26775C10.381 0.91075 9.619 0.91075 9 1.26775L2 5.30775C1.381 5.66575 1 6.32575 1 7.04075V15.1237C1 15.8387 1.381 16.4988 2 16.8558L9 20.8967C9.619 21.2537 10.381 21.2537 11 20.8967L18 16.8558C18.619 16.4978 19 15.8378 19 15.1228Z" stroke="white" stroke-width="1.5" stroke-linecap="round" stroke-linejoin="round"/>
</svg>
