<svg width="48" height="48" viewBox="0 0 48 48" fill="none" xmlns="http://www.w3.org/2000/svg">
<path d="M28.5 23.8931C28.5 24.7808 26.4853 25.5002 24 25.5002C21.5147 25.5002 19.5 24.7808 19.5 23.8931" stroke="#5FF1F1" stroke-width="1.5" stroke-linecap="round" stroke-linejoin="round"/>
<path d="M28.5 23.1071V27.3929C28.5 28.2806 26.4853 29 24 29C21.5147 29 19.5 28.2806 19.5 27.3929V23.1071C19.5 22.2194 21.5147 21.5 24 21.5C26.4853 21.5 28.5 22.2194 28.5 23.1071Z" stroke="#5FF1F1" stroke-width="1.5" stroke-linecap="round" stroke-linejoin="round"/>
<path d="M28 33H20C18.6739 33 17.4021 32.4732 16.4645 31.5355C15.5268 30.5978 15 29.3261 15 28V23.2C15 22.4501 15.1687 21.7099 15.4935 21.0341C15.8183 20.3582 16.291 19.7641 16.8765 19.2957L20.8765 16.0957C21.7631 15.3864 22.8647 15 24 15C25.1354 15 26.237 15.3864 27.1235 16.0957L31.1235 19.2957C31.709 19.7641 32.1817 20.3582 32.5065 21.0341C32.8313 21.7099 33 22.4501 33 23.2V28C33 29.3261 32.4732 30.5978 31.5355 31.5355C30.5979 32.4732 29.3261 33 28 33Z" stroke="#5FF1F1" stroke-width="1.5" stroke-linecap="round" stroke-linejoin="round"/>
<path d="M21.1885 6.22092C17.7833 6.7594 14.6043 8.26449 12.0296 10.5572C9.45483 12.8499 7.59269 15.8339 6.66455 19.1542C5.73642 22.4745 5.78133 25.9915 6.79395 29.287C7.80658 32.5825 9.74431 35.5179 12.3767 37.7441" stroke="#0E2E4C" stroke-width="2"/>
<path d="M20.4076 1.28229C16.8257 1.8487 13.4286 3.25404 10.4933 5.38361C7.55813 7.51318 5.16806 10.3066 3.51821 13.5359C1.86836 16.7653 1.00549 20.339 1.00003 23.9653C0.994559 27.5917 1.84665 31.168 3.48675 34.4022C5.12685 37.6365 7.50849 40.4372 10.4373 42.5756C13.366 44.714 16.759 46.1296 20.3391 46.7068C23.9192 47.284 27.5851 47.0065 31.0376 45.8969C34.49 44.7873 37.6311 42.877 40.2046 40.3221" stroke="#0E2E4C" stroke-width="2"/>
<path d="M45.006 33.3674C46.4147 30.2085 47.0927 26.7727 46.9898 23.3155C46.8869 19.8584 46.0056 16.469 44.4115 13.3996C42.8175 10.3301 40.5517 7.65973 37.7828 5.58711C35.0139 3.5145 31.8133 2.09303 28.419 1.42851" stroke="#0E2E4C" stroke-width="2"/>
<path d="M41.8314 26.4581C42.4111 22.2526 41.4858 17.9776 39.2189 14.3883C36.952 10.799 33.4895 8.12639 29.443 6.84268" stroke="#0E2E4C" stroke-width="2"/>
<path d="M30.9461 40.6058C35.0246 38.8998 38.3326 35.7525 40.2395 31.764" stroke="#0E2E4C" stroke-width="2"/>
</svg>
