<svg width="18" height="18" viewBox="0 0 18 18" fill="none" xmlns="http://www.w3.org/2000/svg">
<path d="M9.01807 11.482L12.8551 7.59503C13.0411 7.40659 13.2627 7.25696 13.507 7.15483C13.7514 7.05271 14.0135 7.00012 14.2783 7.00012C14.5432 7.00012 14.8053 7.05271 15.0497 7.15483C15.294 7.25696 15.5156 7.40659 15.7016 7.59503L17 8.91015M1.4502 14.4925L5.3002 10.5925C5.48598 10.4048 5.70713 10.2558 5.95087 10.1541C6.19461 10.0524 6.45609 10 6.7202 10C6.9843 10 7.24578 10.0524 7.48952 10.1541C7.73326 10.2558 7.95442 10.4048 8.1402 10.5925L14.1702 16.7025M5.44444 1H12.5556C15.0102 1 17 2.98984 17 5.44444V12.5556C17 15.0102 15.0102 17 12.5556 17H5.44444C2.98984 17 1 15.0102 1 12.5556V5.44444C1 2.98984 2.98984 1 5.44444 1Z" stroke="white" stroke-width="1.5" stroke-linecap="round" stroke-linejoin="round"/>
</svg>
