<svg width="15" height="3" viewBox="0 0 15 3" fill="none" xmlns="http://www.w3.org/2000/svg">
<path d="M14 1.5C14 1.77614 13.7761 2 13.5 2C13.2239 2 13 1.77614 13 1.5C13 1.22386 13.2239 1 13.5 1C13.7761 1 14 1.22386 14 1.5Z" stroke="#1D93ED" stroke-width="1.5" stroke-linecap="round" stroke-linejoin="round"/>
<path d="M8 1.5C8 1.77614 7.77614 2 7.5 2C7.22386 2 7 1.77614 7 1.5C7 1.22386 7.22386 1 7.5 1C7.77614 1 8 1.22386 8 1.5Z" stroke="#1D93ED" stroke-width="1.5" stroke-linecap="round" stroke-linejoin="round"/>
<path d="M2 1.5C2 1.77614 1.77614 2 1.5 2C1.22386 2 1 1.77614 1 1.5C1 1.22386 1.22386 1 1.5 1C1.77614 1 2 1.22386 2 1.5Z" stroke="#1D93ED" stroke-width="1.5" stroke-linecap="round" stroke-linejoin="round"/>
</svg>
