<svg width="48" height="48" viewBox="0 0 48 48" fill="none" xmlns="http://www.w3.org/2000/svg">
<path d="M24.5103 25.9907C25.3387 25.9907 26.0103 25.3191 26.0103 24.4907C26.0103 23.6623 25.3387 22.9907 24.5103 22.9907C23.6818 22.9907 23.0103 23.6623 23.0103 24.4907C23.0103 25.3191 23.6818 25.9907 24.5103 25.9907Z" stroke="#3F4B5B" stroke-width="1.5" stroke-linecap="round" stroke-linejoin="round"/>
<path d="M28.3936 22.1064C29.222 22.1064 29.8936 21.4349 29.8936 20.6064C29.8936 19.778 29.222 19.1064 28.3936 19.1064C27.5651 19.1064 26.8936 19.778 26.8936 20.6064C26.8936 21.4349 27.5651 22.1064 28.3936 22.1064Z" stroke="#3F4B5B" stroke-width="1.5" stroke-linecap="round" stroke-linejoin="round"/>
<path d="M29.5 24.5C29.5 27.2614 27.2614 29.5 24.5 29.5C21.7386 29.5 19.5 27.2614 19.5 24.5C19.5 21.7386 21.7386 19.5 24.5 19.5" stroke="#3F4B5B" stroke-width="1.5" stroke-linecap="round" stroke-linejoin="round"/>
<path d="M24.5 34C29.7467 34 34 29.7467 34 24.5C34 19.2533 29.7467 15 24.5 15C19.2533 15 15 19.2533 15 24.5C15 29.7467 19.2533 34 24.5 34Z" stroke="#3F4B5B" stroke-width="1.5" stroke-linecap="round" stroke-linejoin="round"/>
<path d="M21.1885 6.22092C17.7833 6.7594 14.6043 8.26449 12.0296 10.5572C9.45483 12.8499 7.59269 15.8339 6.66455 19.1542C5.73642 22.4745 5.78133 25.9915 6.79395 29.287C7.80658 32.5825 9.74431 35.5179 12.3767 37.7441" stroke="#0E2E4C" stroke-width="2"/>
<path d="M20.4076 1.28229C16.8257 1.8487 13.4286 3.25404 10.4933 5.38361C7.55813 7.51318 5.16806 10.3066 3.51821 13.5359C1.86836 16.7653 1.00549 20.339 1.00003 23.9653C0.994559 27.5917 1.84665 31.168 3.48675 34.4022C5.12685 37.6365 7.50849 40.4372 10.4373 42.5756C13.366 44.714 16.759 46.1296 20.3391 46.7068C23.9192 47.284 27.5851 47.0065 31.0376 45.8969C34.49 44.7873 37.6311 42.877 40.2046 40.3221" stroke="#0E2E4C" stroke-width="2"/>
<path d="M45.006 33.3674C46.4147 30.2085 47.0927 26.7727 46.9898 23.3155C46.8869 19.8584 46.0056 16.469 44.4115 13.3996C42.8175 10.3301 40.5517 7.65973 37.7828 5.58711C35.0139 3.5145 31.8133 2.09303 28.419 1.42851" stroke="#0E2E4C" stroke-width="2"/>
<path d="M41.8314 26.4581C42.4111 22.2526 41.4858 17.9776 39.2189 14.3883C36.952 10.799 33.4895 8.12639 29.443 6.84268" stroke="#0E2E4C" stroke-width="2"/>
<path d="M30.9461 40.6058C35.0246 38.8998 38.3326 35.7525 40.2395 31.764" stroke="#0E2E4C" stroke-width="2"/>
</svg>
