<svg width="20" height="20" viewBox="0 0 20 20" fill="none" xmlns="http://www.w3.org/2000/svg">
<path d="M10 19C5.029 19 1 14.971 1 10C1 5.029 5.029 1 10 1C14.971 1 19 5.029 19 10C19 14.971 14.971 19 10 19Z" stroke="#323232" stroke-width="1.5" stroke-linecap="round" stroke-linejoin="round"/>
<path d="M11.591 5.65901C12.4697 6.53769 12.4697 7.96231 11.591 8.84099C10.7123 9.71967 9.28769 9.71967 8.40901 8.84099C7.53033 7.96231 7.53033 6.53769 8.40901 5.65901C9.28769 4.78033 10.7123 4.78033 11.591 5.65901Z" stroke="#323232" stroke-width="1.5" stroke-linecap="round" stroke-linejoin="round"/>
<path d="M14.321 14.5409C14.1 13.1519 12.906 12.0879 11.456 12.0879H8.54395C7.09295 12.0879 5.89996 13.1519 5.67896 14.5409" stroke="#323232" stroke-width="1.5" stroke-linecap="round" stroke-linejoin="round"/>
</svg>
