<svg width="20" height="20" viewBox="0 0 20 20" fill="none" xmlns="http://www.w3.org/2000/svg">
<path d="M10 5C11.381 5 12.5 6.119 12.5 7.5C12.5 8.881 11.381 10 10 10C8.619 10 7.5 8.881 7.5 7.5C7.5 6.119 8.619 5 10 5Z" stroke="#5FF1F1" stroke-width="1.5" stroke-linecap="round" stroke-linejoin="round"/>
<path d="M14.5 14C14.369 13.671 14.166 13.375 13.906 13.134C13.467 12.726 12.892 12.5 12.292 12.5C11.292 12.5 8.708 12.5 7.708 12.5C7.108 12.5 6.534 12.727 6.094 13.134C5.834 13.375 5.631 13.671 5.5 14" stroke="#5FF1F1" stroke-width="1.5" stroke-linecap="round" stroke-linejoin="round"/>
<path d="M8.49996 18.8649C5.78896 18.4089 3.49096 16.7469 2.17896 14.4429" stroke="#5FF1F1" stroke-width="1.5" stroke-linecap="round" stroke-linejoin="round"/>
<path d="M3.15 4.16992C1.812 5.74092 1 7.77392 1 9.99992C1 10.5549 1.058 11.0959 1.154 11.6239" stroke="#5FF1F1" stroke-width="1.5" stroke-linecap="round" stroke-linejoin="round"/>
<path d="M11.5 18.8649C14.211 18.4089 16.509 16.7469 17.821 14.4429" stroke="#5FF1F1" stroke-width="1.5" stroke-linecap="round" stroke-linejoin="round"/>
<path d="M14.55 2.244C13.214 1.458 11.662 1 9.99995 1C8.33795 1 6.78595 1.458 5.44995 2.244" stroke="#5FF1F1" stroke-width="1.5" stroke-linecap="round" stroke-linejoin="round"/>
<path d="M16.8501 4.16992C18.1881 5.74092 19.0001 7.77392 19.0001 9.99992C19.0001 10.5549 18.9421 11.0959 18.8461 11.6239" stroke="#5FF1F1" stroke-width="1.5" stroke-linecap="round" stroke-linejoin="round"/>
</svg>
