<svg width="20" height="20" viewBox="0 0 20 20" fill="none" xmlns="http://www.w3.org/2000/svg">
<path d="M4 16.5841C5.569 15.0591 7.692 14.1211 10.023 14.1211C12.331 14.1211 14.431 15.0401 16 16.5371C14.431 18.0621 12.308 19.0001 9.977 19.0001C7.669 19.0001 5.569 18.0811 4 16.5841Z" stroke="#1D93ED" stroke-width="1.5" stroke-linecap="round" stroke-linejoin="round"/>
<path d="M1.975 14.025C1.365 12.811 1 11.452 1 10C1 5.026 5.026 1 10 1C14.974 1 19 5.026 19 10C19 11.45 18.637 12.81 18.023 14.023" stroke="#1D93ED" stroke-width="1.5" stroke-linecap="round" stroke-linejoin="round"/>
<path d="M12.1213 5.87868C13.2929 7.05025 13.2929 8.94975 12.1213 10.1213C10.9497 11.2929 9.05025 11.2929 7.87868 10.1213C6.70711 8.94975 6.70711 7.05025 7.87868 5.87868C9.05025 4.70711 10.9497 4.70711 12.1213 5.87868Z" stroke="#1D93ED" stroke-width="1.5" stroke-linecap="round" stroke-linejoin="round"/>
</svg>
