<svg width="25" height="26" viewBox="0 0 25 26" fill="none" xmlns="http://www.w3.org/2000/svg">
<path d="M23.9698 12.6316L23.1064 5.01194C22.8877 3.0728 21.2466 1.60693 19.2946 1.60693H5.6823C3.73037 1.60693 2.08927 3.0728 1.86926 5.01194L1.00586 12.6316" stroke="white" stroke-width="1.5" stroke-linecap="round" stroke-linejoin="round"/>
<path d="M20.1633 16.9565H4.81391C2.69441 16.9565 0.976562 18.6744 0.976562 20.7939C0.976562 22.9134 2.69441 24.6312 4.81391 24.6312H20.1633C22.2828 24.6312 24.0006 22.9134 24.0006 20.7939C24.0006 18.6744 22.2828 16.9565 20.1633 16.9565Z" stroke="white" stroke-width="1.5" stroke-linecap="round" stroke-linejoin="round"/>
<path d="M20.1633 9.28174H4.81391C2.69441 9.28174 0.976562 10.9996 0.976562 13.1191C0.976562 15.2386 2.69441 16.9564 4.81391 16.9564H20.1633C22.2828 16.9564 24.0006 15.2386 24.0006 13.1191C24.0006 10.9996 22.2828 9.28174 20.1633 9.28174Z" stroke="white" stroke-width="1.5" stroke-linecap="round" stroke-linejoin="round"/>
<path d="M11.2097 13.1187H20.1635" stroke="white" stroke-width="1.5" stroke-linecap="round" stroke-linejoin="round"/>
<path d="M4.85918 13.0734C4.88416 13.0984 4.88416 13.1389 4.85918 13.1639C4.8342 13.1888 4.79371 13.1888 4.76873 13.1639C4.74376 13.1389 4.74376 13.0984 4.76873 13.0734C4.79371 13.0484 4.8342 13.0484 4.85918 13.0734Z" stroke="white" stroke-width="1.5" stroke-linecap="round" stroke-linejoin="round"/>
<path d="M11.2991 20.7939H20.2529" stroke="white" stroke-width="1.5" stroke-linecap="round" stroke-linejoin="round"/>
<path d="M4.94341 20.7482C4.96838 20.7732 4.96838 20.8137 4.94341 20.8387C4.91843 20.8636 4.87794 20.8636 4.85296 20.8387C4.82798 20.8137 4.82798 20.7732 4.85296 20.7482C4.87794 20.7232 4.91843 20.7232 4.94341 20.7482Z" stroke="white" stroke-width="1.5" stroke-linecap="round" stroke-linejoin="round"/>
</svg>
