<svg width="48" height="48" viewBox="0 0 48 48" fill="none" xmlns="http://www.w3.org/2000/svg">
<path d="M18.5 20C19.8807 20 21 18.8807 21 17.5C21 16.1193 19.8807 15 18.5 15C17.1193 15 16 16.1193 16 17.5C16 18.8807 17.1193 20 18.5 20Z" stroke="#3F4B5B" stroke-width="1.5" stroke-linecap="round" stroke-linejoin="round"/>
<path d="M29.5 20C30.8807 20 32 18.8807 32 17.5C32 16.1193 30.8807 15 29.5 15C28.1193 15 27 16.1193 27 17.5C27 18.8807 28.1193 20 29.5 20Z" stroke="#3F4B5B" stroke-width="1.5" stroke-linecap="round" stroke-linejoin="round"/>
<path d="M18.5 33C19.8807 33 21 31.8807 21 30.5C21 29.1193 19.8807 28 18.5 28C17.1193 28 16 29.1193 16 30.5C16 31.8807 17.1193 33 18.5 33Z" stroke="#3F4B5B" stroke-width="1.5" stroke-linecap="round" stroke-linejoin="round"/>
<path d="M18.5 20V28" stroke="#3F4B5B" stroke-width="1.5" stroke-linecap="round" stroke-linejoin="round"/>
<path d="M18.5 28V26C18.5 25.337 18.7634 24.7011 19.2322 24.2322C19.7011 23.7634 20.337 23.5 21 23.5H27C27.3283 23.5 27.6534 23.4353 27.9567 23.3097C28.26 23.1841 28.5356 22.9999 28.7678 22.7678C28.9999 22.5356 29.1841 22.26 29.3097 21.9567C29.4353 21.6534 29.5 21.3283 29.5 21V20" stroke="#3F4B5B" stroke-width="1.5" stroke-linecap="round" stroke-linejoin="round"/>
<path d="M21.1885 6.22092C17.7833 6.7594 14.6043 8.26449 12.0296 10.5572C9.45483 12.8499 7.59269 15.8339 6.66455 19.1542C5.73642 22.4745 5.78133 25.9915 6.79395 29.287C7.80658 32.5825 9.74431 35.5179 12.3767 37.7441" stroke="#0E2E4C" stroke-width="2"/>
<path d="M20.4076 1.28229C16.8257 1.8487 13.4286 3.25404 10.4933 5.38361C7.55813 7.51318 5.16806 10.3066 3.51821 13.5359C1.86836 16.7653 1.00549 20.339 1.00003 23.9653C0.994559 27.5917 1.84665 31.168 3.48675 34.4022C5.12685 37.6365 7.50849 40.4372 10.4373 42.5756C13.366 44.714 16.759 46.1296 20.3391 46.7068C23.9192 47.284 27.5851 47.0065 31.0376 45.8969C34.49 44.7873 37.6311 42.877 40.2046 40.3221" stroke="#0E2E4C" stroke-width="2"/>
<path d="M45.006 33.3674C46.4147 30.2085 47.0927 26.7727 46.9898 23.3155C46.8869 19.8584 46.0056 16.469 44.4115 13.3996C42.8175 10.3301 40.5517 7.65973 37.7828 5.58711C35.0139 3.5145 31.8133 2.09303 28.419 1.42851" stroke="#0E2E4C" stroke-width="2"/>
<path d="M41.8314 26.4581C42.4111 22.2526 41.4858 17.9776 39.2189 14.3883C36.952 10.799 33.4895 8.12639 29.443 6.84268" stroke="#0E2E4C" stroke-width="2"/>
<path d="M30.9461 40.6058C35.0246 38.8998 38.3326 35.7525 40.2395 31.764" stroke="#0E2E4C" stroke-width="2"/>
</svg>
