<svg width="1292" height="818" viewBox="0 0 1292 818" fill="none" xmlns="http://www.w3.org/2000/svg">
<line x1="58.4998" y1="2.18557e-08" x2="58.4997" y2="818" stroke="#0F1620"/>
<line x1="205.5" y1="2.18557e-08" x2="205.5" y2="818" stroke="#0F1620"/>
<line x1="352.5" y1="2.18557e-08" x2="352.5" y2="818" stroke="#0F1620"/>
<line x1="499.5" y1="2.18557e-08" x2="499.5" y2="818" stroke="#0F1620"/>
<line x1="646.5" y1="2.18557e-08" x2="646.5" y2="818" stroke="#0F1620"/>
<line x1="793.5" y1="2.18557e-08" x2="793.5" y2="818" stroke="#0F1620"/>
<line x1="940.5" y1="2.18557e-08" x2="940.5" y2="818" stroke="#0F1620"/>
<line x1="1087.5" y1="2.18557e-08" x2="1087.5" y2="818" stroke="#0F1620"/>
<line x1="1234.5" y1="2.18557e-08" x2="1234.5" y2="818" stroke="#0F1620"/>
<line x1="1292" y1="115.5" x2="-4.37115e-08" y2="115.5" stroke="#0F1620"/>
<line x1="1292" y1="262.5" x2="-4.37115e-08" y2="262.5" stroke="#0F1620"/>
<line x1="1292" y1="409.5" x2="-4.37115e-08" y2="409.5" stroke="#0F1620"/>
<line x1="1292" y1="556.5" x2="-4.37115e-08" y2="556.5" stroke="#0F1620"/>
<line x1="1292" y1="703.5" x2="-4.37115e-08" y2="703.5" stroke="#0F1620"/>
</svg>
