<svg width="21" height="20" viewBox="0 0 21 20" fill="none" xmlns="http://www.w3.org/2000/svg">
<path d="M17.8825 4.98438C18.9707 6.7089 19.4402 8.75219 19.2138 10.7787C18.9874 12.8053 18.0787 14.6946 16.6368 16.1365C15.1949 17.5784 13.3055 18.4872 11.279 18.7135C9.25243 18.9399 7.20914 18.4705 5.48462 17.3823" stroke="#54D4D5" stroke-width="1.5" stroke-linecap="round" stroke-linejoin="round"/>
<path d="M12.2693 1C13.2563 1.22484 14.198 1.61578 15.054 2.15613" stroke="#54D4D5" stroke-width="1.5" stroke-linecap="round" stroke-linejoin="round"/>
<path d="M1.5 11.7695C1.72484 12.7566 2.11579 13.6982 2.65613 14.5543" stroke="#54D4D5" stroke-width="1.5" stroke-linecap="round" stroke-linejoin="round"/>
<path d="M8.26935 1C7.28231 1.22484 6.34067 1.61578 5.48462 2.15613" stroke="#54D4D5" stroke-width="1.5" stroke-linecap="round" stroke-linejoin="round"/>
<path d="M2.65613 4.98438C2.11578 5.84042 1.72484 6.78207 1.5 7.7691" stroke="#54D4D5" stroke-width="1.5" stroke-linecap="round" stroke-linejoin="round"/>
<path d="M10.2693 7.76953V11.7695" stroke="#54D4D5" stroke-width="1.5" stroke-linecap="round" stroke-linejoin="round"/>
<path d="M8.26929 9.76953H12.2693" stroke="#54D4D5" stroke-width="1.5" stroke-linecap="round" stroke-linejoin="round"/>
</svg>
