<svg width="20" height="20" viewBox="0 0 20 20" fill="none" xmlns="http://www.w3.org/2000/svg">
<path d="M8 19H12" stroke="#54D4D5" stroke-width="1.5" stroke-linecap="round" stroke-linejoin="round"/>
<path d="M8 1H12" stroke="#54D4D5" stroke-width="1.5" stroke-linecap="round" stroke-linejoin="round"/>
<path d="M1 8V12" stroke="#54D4D5" stroke-width="1.5" stroke-linecap="round" stroke-linejoin="round"/>
<path d="M19 8V12" stroke="#54D4D5" stroke-width="1.5" stroke-linecap="round" stroke-linejoin="round"/>
<path d="M10 12V8" stroke="#54D4D5" stroke-width="1.5" stroke-linecap="round" stroke-linejoin="round"/>
<path d="M12 10H8" stroke="#54D4D5" stroke-width="1.5" stroke-linecap="round" stroke-linejoin="round"/>
<path d="M5 19V19C2.79086 19 1 17.2091 1 15V15" stroke="#54D4D5" stroke-width="1.5" stroke-linecap="round" stroke-linejoin="round"/>
<path d="M5 19V19C2.79086 19 1 17.2091 1 15V15" stroke="#54D4D5" stroke-width="1.5" stroke-linecap="round" stroke-linejoin="round"/>
<path d="M15 1V1C17.2091 1 19 2.79086 19 5" stroke="#54D4D5" stroke-width="1.5" stroke-linecap="round" stroke-linejoin="round"/>
<path d="M1 5V5C1 2.79086 2.79086 1 5 1H5" stroke="#54D4D5" stroke-width="1.5" stroke-linecap="round" stroke-linejoin="round"/>
<path d="M19 15C19 17.2091 17.2091 19 15 19" stroke="#54D4D5" stroke-width="1.5" stroke-linecap="round" stroke-linejoin="round"/>
</svg>
