<svg width="30" height="30" viewBox="0 0 30 30" fill="none" xmlns="http://www.w3.org/2000/svg">
<path d="M11.8889 29H18.1111" stroke="#1D93ED" stroke-width="1.5" stroke-linecap="round" stroke-linejoin="round"/>
<path d="M11.8889 1H18.1111" stroke="#1D93ED" stroke-width="1.5" stroke-linecap="round" stroke-linejoin="round"/>
<path d="M1 11.8887V18.1109" stroke="#1D93ED" stroke-width="1.5" stroke-linecap="round" stroke-linejoin="round"/>
<path d="M29 11.8887V18.1109" stroke="#1D93ED" stroke-width="1.5" stroke-linecap="round" stroke-linejoin="round"/>
<path d="M15 18.1109V11.8887" stroke="#1D93ED" stroke-width="1.5" stroke-linecap="round" stroke-linejoin="round"/>
<path d="M18.1111 15H11.8889" stroke="#1D93ED" stroke-width="1.5" stroke-linecap="round" stroke-linejoin="round"/>
<path d="M7.22222 29.0001V29.0001C3.78578 29.0001 1 26.2143 1 22.7778V22.7778" stroke="#1D93ED" stroke-width="1.5" stroke-linecap="round" stroke-linejoin="round"/>
<path d="M7.22222 29.0001V29.0001C3.78578 29.0001 1 26.2143 1 22.7778V22.7778" stroke="#1D93ED" stroke-width="1.5" stroke-linecap="round" stroke-linejoin="round"/>
<path d="M22.7778 1V1C26.2142 1 29 3.78578 29 7.22222" stroke="#1D93ED" stroke-width="1.5" stroke-linecap="round" stroke-linejoin="round"/>
<path d="M1 7.22222V7.22222C0.999999 3.78578 3.78578 1 7.22222 1H7.22222" stroke="#1D93ED" stroke-width="1.5" stroke-linecap="round" stroke-linejoin="round"/>
<path d="M29 22.7778C29 26.2143 26.2142 29.0001 22.7778 29.0001" stroke="#1D93ED" stroke-width="1.5" stroke-linecap="round" stroke-linejoin="round"/>
</svg>
