<svg width="30" height="29" viewBox="0 0 30 29" fill="none" xmlns="http://www.w3.org/2000/svg">
<path fill-rule="evenodd" clip-rule="evenodd" d="M6 5H24V23H6V5ZM10.4697 9.46967C10.7626 9.17678 11.2374 9.17678 11.5303 9.46967L15 12.9393L18.4697 9.46967C18.7626 9.17678 19.2374 9.17678 19.5303 9.46967C19.8232 9.76256 19.8232 10.2374 19.5303 10.5303L16.0607 14L19.5303 17.4697C19.8232 17.7626 19.8232 18.2374 19.5303 18.5303C19.2374 18.8232 18.7626 18.8232 18.4697 18.5303L15 15.0607L11.5303 18.5303C11.2374 18.8232 10.7626 18.8232 10.4697 18.5303C10.1768 18.2374 10.1768 17.7626 10.4697 17.4697L13.9393 14L10.4697 10.5303C10.1768 10.2374 10.1768 9.76256 10.4697 9.46967Z" fill="#BA2829"/>
<rect y="28" width="30" height="1" fill="#252C3C"/>
<rect x="6" width="18" height="1" fill="#7B1B1B"/>
</svg>
