<svg width="20" height="16" viewBox="0 0 20 16" fill="none" xmlns="http://www.w3.org/2000/svg">
<path d="M1 8.0015C1.00089 7.33849 1.15345 6.68447 1.446 6.0895V6.0895C2.25759 4.52983 3.48808 3.2274 4.99917 2.32859C6.51026 1.42977 8.24208 0.970196 10 1.0015C11.7579 0.970196 13.4897 1.42977 15.0008 2.32859C16.5119 3.2274 17.7424 4.52983 18.554 6.0895C18.8474 6.68417 19 7.33839 19 8.0015C19 8.66461 18.8474 9.31883 18.554 9.9135V9.9135C17.7424 11.4732 16.5119 12.7756 15.0008 13.6744C13.4897 14.5732 11.7579 15.0328 10 15.0015C8.24208 15.0328 6.51026 14.5732 4.99917 13.6744C3.48808 12.7756 2.25759 11.4732 1.446 9.9135V9.9135C1.15345 9.31853 1.00089 8.66451 1 8.0015V8.0015Z" stroke="#1D93ED" stroke-width="1.5" stroke-linecap="round" stroke-linejoin="round"/>
</svg>
