<svg width="20" height="16" viewBox="0 0 20 16" fill="none" xmlns="http://www.w3.org/2000/svg">
<path d="M1 8.0015C1.00089 7.33849 1.15345 6.68447 1.446 6.0895V6.0895C2.25759 4.52983 3.48808 3.2274 4.99917 2.32859C6.51026 1.42977 8.24208 0.970196 10 1.0015C11.7579 0.970196 13.4897 1.42977 15.0008 2.32859C16.5119 3.2274 17.7424 4.52983 18.554 6.0895C18.8474 6.68417 19 7.33839 19 8.0015C19 8.66461 18.8474 9.31883 18.554 9.9135V9.9135C17.7424 11.4732 16.5119 12.7756 15.0008 13.6744C13.4897 14.5732 11.7579 15.0328 10 15.0015C8.24208 15.0328 6.51026 14.5732 4.99917 13.6744C3.48808 12.7756 2.25759 11.4732 1.446 9.9135V9.9135C1.15345 9.31853 1.00089 8.66451 1 8.0015V8.0015Z" stroke="#1D93ED" stroke-width="1.5" stroke-linecap="round" stroke-linejoin="round"/>
<path d="M13 8.00195C13 8.5953 12.8241 9.17532 12.4944 9.66866C12.1648 10.162 11.6962 10.5465 11.1481 10.7736C10.5999 11.0007 9.99667 11.0601 9.41473 10.9443C8.83279 10.8286 8.29824 10.5428 7.87868 10.1233C7.45912 9.70372 7.1734 9.16917 7.05765 8.58722C6.94189 8.00528 7.0013 7.40208 7.22836 6.8539C7.45543 6.30572 7.83994 5.83719 8.33329 5.50754C8.82664 5.1779 9.40666 5.00195 10 5.00195" stroke="#1D93ED" stroke-width="1.5" stroke-linecap="round" stroke-linejoin="round"/>
</svg>
