<svg width="20" height="20" viewBox="0 0 20 20" fill="none" xmlns="http://www.w3.org/2000/svg">
<path d="M6.02007 2.0543H3.27007L3.26007 2.0533C2.01007 2.0433 1.01007 3.0533 1.01007 4.2933C1.00007 4.2933 1.00007 4.2933 1.01007 4.2933V15.7933H1.00007C0.990074 17.0333 2.00007 18.0333 3.24007 18.0333V18.0233H5.98007" stroke="#3F4B5B" stroke-width="1.5" stroke-linecap="round" stroke-linejoin="round"/>
<path d="M11.6202 18.9944L17.2402 17.7444V17.7344C18.2702 17.5044 19.0002 16.5844 19.0002 15.5344V4.51444V4.50444C19.0002 3.44444 18.2602 2.53444 17.2302 2.30444L11.6052 1.05444C10.3852 0.784441 9.18522 1.54444 8.91522 2.76444C8.87522 2.91444 8.85522 3.08444 8.85522 3.24444V16.7344L8.84521 16.7244C8.84521 17.9644 9.84521 18.9644 11.0852 18.9644C11.2452 18.9544 11.4052 18.9444 11.5652 18.9044L11.6202 18.9944Z" stroke="#3F4B5B" stroke-width="1.5" stroke-linecap="round" stroke-linejoin="round"/>
<path d="M12.11 9.95452C12.16 10.0045 12.16 10.0945 12.1 10.1445C12.04 10.1945 11.95 10.1945 11.9 10.1345C11.84 10.0745 11.84 9.98452 11.9 9.93452H11.89C11.94 9.87452 12.03 9.87452 12.08 9.92452" stroke="#3F4B5B" stroke-width="1.5" stroke-linecap="round" stroke-linejoin="round"/>
</svg>
