<svg width="26" height="23" viewBox="0 0 26 23" fill="none" xmlns="http://www.w3.org/2000/svg">
<path d="M19.6136 2.3208L24.1889 10.2456C24.6604 11.0632 24.6604 12.0696 24.1889 12.8872L19.6136 20.812C19.1421 21.6296 18.269 22.1328 17.326 22.1328H8.1755C7.23113 22.1328 6.3594 21.6296 5.88788 20.812L1.31263 12.8872C0.841103 12.0696 0.841103 11.0632 1.31263 10.2456L5.88788 2.3208C6.3594 1.50322 7.23245 1 8.1755 1H17.3273C18.2704 1 19.1421 1.50322 19.6136 2.3208Z" stroke="#3F4B5B" stroke-width="1.5" stroke-linecap="round" stroke-linejoin="round"/>
<path d="M16.448 7.86896C18.4901 9.91103 18.4901 13.2219 16.448 15.2639C14.406 17.306 11.0951 17.306 9.05304 15.2639C7.01097 13.2219 7.01097 9.91102 9.05304 7.86896C11.0951 5.82688 14.406 5.82688 16.448 7.86896" stroke="#3F4B5B" stroke-width="1.5" stroke-linecap="round" stroke-linejoin="round"/>
</svg>
