<svg width="35" height="35" viewBox="0 0 35 35" fill="none" xmlns="http://www.w3.org/2000/svg">
<path d="M4.95996 6.79356C5.80513 5.80356 6.76763 4.92173 7.82363 4.15723" stroke="#3F4B5B" stroke-width="1.5" stroke-linecap="round" stroke-linejoin="round"/>
<path d="M26.6663 31.2173C24.0446 32.9736 20.8931 34.0003 17.4996 34.0003C15.8276 34.0003 14.2161 33.7473 12.6963 33.2853" stroke="#3F4B5B" stroke-width="1.5" stroke-linecap="round" stroke-linejoin="round"/>
<path d="M7.13998 30.3333C4.79148 28.4358 2.98748 25.9022 1.95898 23" stroke="#3F4B5B" stroke-width="1.5" stroke-linecap="round" stroke-linejoin="round"/>
<path d="M1.95883 12C1.34833 13.7233 1 15.5677 1 17.5" stroke="#3F4B5B" stroke-width="1.5" stroke-linecap="round" stroke-linejoin="round"/>
<path d="M31.1822 26.6667C32.9495 24.0432 34 20.9008 34 17.5C34 8.3865 26.6135 1 17.5 1" stroke="#3F4B5B" stroke-width="1.5" stroke-linecap="round" stroke-linejoin="round"/>
<path d="M20.7414 9.67521C22.5307 11.4645 22.5307 14.3667 20.7414 16.1579C18.952 17.949 16.0499 17.9472 14.2587 16.1579C12.4675 14.3685 12.4694 11.4664 14.2587 9.67521C16.048 7.88404 18.9502 7.88587 20.7414 9.67521Z" stroke="#3F4B5B" stroke-width="1.5" stroke-linecap="round" stroke-linejoin="round"/>
<path d="M25.75 24.8335C25.5098 24.2303 25.1377 23.6877 24.661 23.2458C23.8562 22.4978 22.802 22.0835 21.702 22.0835C19.8687 22.0835 15.1313 22.0835 13.298 22.0835C12.198 22.0835 11.1457 22.4997 10.339 23.2458C9.86233 23.6877 9.49017 24.2303 9.25 24.8335" stroke="#3F4B5B" stroke-width="1.5" stroke-linecap="round" stroke-linejoin="round"/>
</svg>
