<svg width="27" height="27" viewBox="0 0 27 27" fill="none" xmlns="http://www.w3.org/2000/svg">
<path d="M16.6786 18.1205L21.2938 20.747M21.2938 20.747L25.909 18.1205M21.2938 20.747V26M12.8809 24.6854L12.8677 24.6841C6.30091 24.671 1 19.3917 1 12.8517C1 6.31172 6.30091 1.03244 12.8677 1.03244C19.4213 1.03244 24.7222 6.31172 24.7222 12.8386M1.68569 8.92772H23.9838M1.68569 16.8072H12.8809M18.1554 12.8543V12.8412C18.1554 9.1641 17.1665 5.56579 15.294 2.41399L15.2808 2.40085C14.5028 1.06134 12.8018 0.601698 11.47 1.37652C11.0348 1.6129 10.6788 1.96748 10.4414 2.38772H10.4282C6.61739 8.80953 6.61739 16.8072 10.4282 23.2422L10.4151 23.229C10.9029 24.0827 11.826 24.608 12.8282 24.6211M20.7004 25.8424L17.1137 23.7937L17.1005 23.7806C16.7181 23.5573 16.494 23.1634 16.494 22.7431V18.6852L16.4926 18.6721C16.4795 18.2387 16.7168 17.8447 17.086 17.6346L20.6595 15.5859V15.5728C21.0156 15.3627 21.4639 15.3627 21.8331 15.5728L25.4066 17.6083C25.7758 17.8184 26 18.2124 26 18.6327V22.6775C26 23.0977 25.7626 23.4917 25.3934 23.7018L21.8067 25.7373V25.7242C21.4375 25.9212 20.9892 25.9212 20.62 25.7111L20.7004 25.8424Z" stroke="#3F4B5B" stroke-width="1.5" stroke-linecap="round" stroke-linejoin="round"/>
</svg>
