<svg width="209" height="41" viewBox="0 0 209 41" fill="none" xmlns="http://www.w3.org/2000/svg">
<mask id="path-1-inside-1_187_409" fill="white">
<path fill-rule="evenodd" clip-rule="evenodd" d="M3 36V18.1819L14.9062 5H203V25.8919L193.87 36H3Z"/>
</mask>
<path fill-rule="evenodd" clip-rule="evenodd" d="M3 36V18.1819L14.9062 5H203V25.8919L193.87 36H3Z" fill="#0E2E4C"/>
<path d="M3 18.1819L2.2579 17.5116L2 17.7972V18.1819H3ZM3 36H2V37H3V36ZM14.9062 5V4H14.462L14.1641 4.32971L14.9062 5ZM203 5H204V4H203V5ZM203 25.8919L203.742 26.5622L204 26.2767V25.8919H203ZM193.87 36V37H194.314L194.612 36.6703L193.87 36ZM2 18.1819V36H4V18.1819H2ZM14.1641 4.32971L2.2579 17.5116L3.7421 18.8522L15.6483 5.67029L14.1641 4.32971ZM203 4H14.9062V6H203V4ZM204 25.8919V5H202V25.8919H204ZM194.612 36.6703L203.742 26.5622L202.258 25.2216L193.128 35.3297L194.612 36.6703ZM3 37H193.87V35H3V37Z" fill="#1464A1" mask="url(#path-1-inside-1_187_409)"/>
<path d="M1 14L14 1H47.5" stroke="#1464A1"/>
<path d="M208.5 27L195.5 40H162" stroke="#1464A1"/>
</svg>
